<?xml version="1.0" encoding="utf-8"?>
<!-- Generator: Adobe Illustrator 18.1.1, SVG Export Plug-In . SVG Version: 6.00 Build 0)  -->
<svg version="1.1" id="Layer_1" xmlns="http://www.w3.org/2000/svg" xmlns:xlink="http://www.w3.org/1999/xlink" x="0px" y="0px"
	 viewBox="0 0 849 113" enable-background="new 0 0 849 113" xml:space="preserve">
<g>
	<path fill="#EFEDE6" d="M44.8,76.5c14.7-23.2,22.2-50,44.5-64.7c-0.3,0-0.6-0.1-0.9-0.1H26.1c-7,0-12.6,5.7-12.6,12.6v62.3
		c0,2.5,0.7,4.8,2,6.8C29.1,92.8,40.2,85.7,44.8,76.5z"/>
	<path fill="#E5E2DC" d="M89.3,11.9C67,26.5,59.6,53.4,44.8,76.5c-4.6,9.2-15.8,16.2-29.4,17c2.2,3.5,6.2,5.9,10.6,5.9h62.3
		c7,0,12.6-5.7,12.6-12.6V24.4C101.1,17.7,95.9,12.3,89.3,11.9z"/>
	<circle fill="#A9A8A8" cx="26.4" cy="24.7" r="3.1"/>
	<circle fill="#A9A8A8" cx="89.3" cy="24.7" r="3.1"/>
	<circle fill="#A9A8A8" cx="89.3" cy="90" r="3.1"/>
	<circle fill="#A9A8A8" cx="26.4" cy="90" r="3.1"/>
</g>
<g>
	<path fill="#EFEDE6" d="M117.1,94.5V16c0-1,0.5-1.5,1.5-1.5h15.6c11.3,0,20.9,4,28.8,11.9c8,8,11.9,17.6,11.9,28.8
		s-4,20.9-11.9,28.8c-8,8-17.6,11.9-28.8,11.9h-15.6C117.6,96,117.1,95.5,117.1,94.5z M120.1,93.1h14.2c10.5-0.2,19.4-3.9,26.8-11.2
		c7.3-7.3,11.1-16.3,11.1-26.7c-0.1-10.4-3.8-19.3-11.1-26.7c-7.3-7.4-16.3-11.1-26.8-11.1h-14.2V93.1z"/>
	<path fill="#EFEDE6" d="M187.1,16c0-1,0.5-1.5,1.5-1.5S190,15,190,16v78.6c0,1-0.5,1.5-1.5,1.5s-1.5-0.5-1.5-1.5V16z"/>
	<path fill="#EFEDE6" d="M208.6,89.2c-2.8-1.7-4.6-3-5.4-3.8c-0.8-0.8-1.1-1.5-0.9-2c0.2-0.5,0.5-0.9,1-1.1c0.5-0.2,1,0,1.5,0.5
		c0.5,0.5,1.8,1.5,3.7,2.9c1.9,1.4,5.3,3.1,10.1,5.1c4.9,2,9.7,3,14.4,3c7.8,0,14.5-1.9,19.9-5.8c5.4-3.9,8.1-8.7,8.1-14.3
		c0-4.4-1.3-7.8-3.8-10c-1.4-1.2-2.7-2.3-4-3.1c-1.2-0.8-3.1-1.6-5.5-2.4c-2.8-0.9-6.3-1.9-10.5-2.9c-4.2-1-7.1-1.7-8.7-2.2
		c-1.6-0.4-3.6-1.1-6.2-1.9c-2.6-0.9-4.5-1.7-5.9-2.7c-1.4-0.9-2.8-2.1-4.4-3.5c-2.8-2.6-4.2-6.5-4.2-11.7c0-5.2,2.5-9.7,7.4-13.5
		c4.9-3.8,10.9-5.7,17.9-5.7c7.7,0,14.6,2.1,20.6,6.3c2.2,1.5,3.6,2.7,4.2,3.6c0.6,0.7,0.6,1.4-0.1,2.1c-0.9,0.5-1.6,0.5-2.1-0.1
		c-5.9-5.9-13.4-8.9-22.6-8.9c-6.1,0-11.4,1.6-15.7,4.8c-4.4,3.2-6.5,7-6.5,11.5c0,4.3,1.6,7.9,4.9,11c2.4,2.2,6.6,4,12.6,5.6
		c1.7,0.5,4.2,1.1,7.4,1.8c3.2,0.7,5.6,1.3,7.2,1.8c1.6,0.4,3.7,1.1,6.3,1.9c2.6,0.9,4.6,1.8,6,2.7c1.4,1,2.8,2.2,4.3,3.7
		c2.9,2.6,4.3,6.6,4.3,11.8c0,6.4-3,11.9-8.9,16.4c-5.9,4.5-13.1,6.7-21.6,6.7C225,96.6,216.7,94.1,208.6,89.2z"/>
	<path fill="#EFEDE6" d="M276.1,94.5V16c0-1,0.5-1.5,1.5-1.5h23.9c6.2,0,11.6,2.2,16,6.6c4.5,4.4,6.7,9.8,6.7,16.1
		c0,6.3-2.2,11.6-6.6,16c-4.4,4.4-9.8,6.6-16.1,6.6H279v34.7c0,1-0.5,1.5-1.5,1.5C276.6,96,276.1,95.5,276.1,94.5z M279,56.8h22.5
		c5.4,0,10.1-1.9,13.9-5.7c3.8-3.8,5.8-8.4,5.8-13.9s-1.9-10.1-5.8-14c-3.8-3.9-8.5-5.8-13.9-5.8H279V56.8z"/>
	<path fill="#EFEDE6" d="M380.3,96h-43.5c-1,0-1.5-0.5-1.5-1.5V16c0-1,0.5-1.5,1.5-1.5c1,0,1.5,0.5,1.5,1.5v77.2h42.1
		c1,0,1.5,0.5,1.5,1.5C381.8,95.6,381.3,96,380.3,96z"/>
	<path fill="#EFEDE6" d="M447.8,95.7c-0.1,0-0.3,0-0.8,0.1c-0.4,0-0.8-0.3-1.2-1L438,73.9h-40.8l-7.8,20.9c-0.2,0.7-0.6,1.1-1.3,1.1
		c-0.3-0.1-0.5-0.1-0.6-0.1c-0.9-0.4-1.1-1.1-0.7-2l29.4-78.3c0.2-0.8,0.7-1.1,1.4-1.1c0.7,0.1,1.2,0.4,1.6,1.1l29.4,78.3
		C449,94.6,448.8,95.2,447.8,95.7z M417.6,19.8l-19.2,51h38.5L417.6,19.8z"/>
	<path fill="#EFEDE6" d="M470.2,94.5V56.2l-28.6-39.3c-0.8-0.8-0.7-1.4,0.2-1.9c0.9-0.5,1.6-0.4,2.1,0.2l27.7,38.1l27.6-38.1
		c0.4-0.4,0.9-0.5,1.5-0.4c0.6,0.1,1,0.4,1.2,0.8c0.2,0.4,0.2,0.9-0.1,1.3l-28.8,39.3v38.3c0,1-0.5,1.5-1.5,1.5
		C470.7,96,470.2,95.5,470.2,94.5z"/>
</g>
<g>
	<path fill="#EFEDE6" d="M526.1,84c-8.5-8.2-12.7-18.2-12.7-30s4.2-21.8,12.7-29.9c8.5-8.2,18.2-12.2,29.3-12.2
		c11.1,0,20.6,3.1,28.4,9.3c0.9,0.6,1.4,1.4,1.6,2.6c0.1,1.1-0.2,2.2-1,3.1c-1.7,2-3.6,2.2-5.7,0.7c-6.3-5.1-14-7.6-22.9-7.6
		c-9,0-16.9,3.3-23.7,10c-6.8,6.7-10.3,14.7-10.3,24.1c0,9.4,3.4,17.4,10.3,24.1c6.8,6.6,14.7,9.9,23.6,9.9c8.9,0,16.6-2.5,23-7.4
		c2.1-1.5,4-1.2,5.8,0.9c1.8,2.1,1.5,4-0.9,5.9c-7.7,6-16.6,9-26.6,9C544.8,96.4,534.6,92.3,526.1,84z"/>
	<path fill="#EFEDE6" d="M664.5,13.1c0.8-0.8,1.8-1.2,2.9-1.2c1.1,0,2.1,0.4,2.9,1.2c0.8,0.8,1.2,1.8,1.2,2.9v76.2
		c0,1.1-0.4,2.1-1.2,2.9c-0.8,0.8-1.8,1.2-2.9,1.2c-1.1,0-2.1-0.4-2.9-1.2c-0.8-0.8-1.2-1.8-1.2-2.9V79.6
		c-3.7,5.2-8.3,9.3-13.9,12.2c-5.6,3-11.5,4.5-17.9,4.5c-11,0-20.5-4.1-28.3-12.4c-7.8-8.3-11.7-18.2-11.7-29.8
		c0-11.6,3.9-21.6,11.7-29.8c7.8-8.3,17.2-12.4,28.3-12.4c6.3,0,12.3,1.5,17.9,4.5c5.6,3,10.2,7,13.9,12.1V16
		C663.3,14.9,663.7,13.9,664.5,13.1z M599.8,54.1c0,9.4,3.1,17.4,9.4,24.1c6.3,6.6,13.7,9.9,22.4,9.9c8.7,0,16.1-3.3,22.3-9.9
		c6.2-6.6,9.3-14.6,9.3-24.1c0-9.4-3.1-17.5-9.3-24.1c-6.2-6.7-13.7-10-22.3-10c-8.7,0-16.2,3.3-22.4,10
		C603,36.6,599.8,44.7,599.8,54.1z"/>
	<path fill="#EFEDE6" d="M684.9,84.3c-2-1.7-2.1-3.6-0.5-5.5c0.7-0.9,1.6-1.4,2.8-1.6c1.1-0.1,2.2,0.2,3.1,1
		c9,6.6,17.1,9.8,24.5,9.8s13.2-1.7,17.4-5.2c4.3-2.9,6.4-6.2,6.3-10.1c-0.1-3.8-2-7.3-5.7-10.3c-3.7-3-9.8-5.2-18.2-6.6l-0.3-0.2
		c-9-1.6-15.3-3.8-19.1-6.6c-6.1-3.6-9.1-8.6-9.1-15.2c0-6.6,3-12.1,9.1-16.6c5.5-3.8,12.4-5.7,20.7-5.7c3.3,0,6.7,0.5,10.1,1.6
		c3.4,1.1,6,2.1,7.8,3.1c1.8,1,4.2,2.4,7.3,4.4c0.9,0.7,1.5,1.6,1.7,2.8c0.2,1.1,0.1,2.2-0.5,3.1c-0.6,0.9-1.4,1.5-2.6,1.7
		c-1.2,0.2-2.2,0.1-3.1-0.5c-2.9-2-5-3.4-6.5-4.2c-1.4-0.9-3.5-1.8-6.3-2.8c-2.8-1-5.4-1.5-7.9-1.5c-6.7,0-11.9,1.5-15.7,4.6
		c-3.8,3-5.7,6.2-5.7,9.6c0,3.3,1.6,6.3,4.8,8.8c4,2.8,9.8,4.7,17.2,5.9h0.3c7.5,1.1,14.3,3.4,20.5,6.9c6.3,4.1,9.5,9.7,9.5,16.6
		c0,7-3.1,12.8-9.4,17.4c-6.3,4.7-13.4,7-21.3,7C705.2,96.3,694.8,92.2,684.9,84.3z"/>
	<path fill="#EFEDE6" d="M833.5,51.2v0.7c0,1.2-0.4,2.1-1.2,2.8c-0.8,0.7-1.8,1-2.9,1h-69.3c0.5,9.2,3.9,16.9,10.2,23.1
		c6.3,6.2,13.9,9.3,22.6,9.3c5.6,0,10.9-1.4,15.7-4.1c4.8-2.8,8.7-6.5,11.6-11.2c1.4-2.3,3.2-2.8,5.5-1.4c2.3,1.6,2.8,3.6,1.4,5.9
		c-3.7,5.9-8.5,10.5-14.6,14c-6,3.4-12.6,5.2-19.6,5.2c-11.4,0-21.1-4.1-29.1-12.3c-8-8.2-12-18.2-12-29.8c0-11.7,4-21.6,12-29.9
		c8-8.3,17.5-12.4,28.6-12.4c11.1,0,20.5,3.8,28.2,11.3C828.3,30.7,832.6,40,833.5,51.2z M813.5,27.9c-6-5.2-12.9-7.8-20.8-7.8
		c-7.9,0-14.8,2.6-20.8,7.7c-6,5.1-9.8,11.7-11.4,19.7h64C823.2,39.6,819.5,33.1,813.5,27.9z"/>
</g>
</svg>
