<?xml version="1.0" encoding="utf-8"?>
<!-- Generator: Adobe Illustrator 15.1.0, SVG Export Plug-In . SVG Version: 6.00 Build 0)  -->
<!DOCTYPE svg PUBLIC "-//W3C//DTD SVG 1.1//EN" "http://www.w3.org/Graphics/SVG/1.1/DTD/svg11.dtd">
<svg version="1.1" id="Layer_1" xmlns="http://www.w3.org/2000/svg" xmlns:xlink="http://www.w3.org/1999/xlink" x="0px" y="0px"
	 width="200px" height="25px" viewBox="0 0 200 25" enable-background="new 0 0 200 25" xml:space="preserve">
<path fill="#EFEDE6" d="M9.023,18.635c4.244-6.668,6.391-14.386,12.801-18.607c-0.087-0.006-0.171-0.026-0.262-0.026H3.638
	C1.629,0.001,0,1.63,0,3.639v17.925c0,0.721,0.216,1.385,0.577,1.951C4.483,23.311,7.696,21.287,9.023,18.635"/>
<path fill="#E5E2DC" d="M21.824,0.027c-6.41,4.222-8.557,11.939-12.801,18.608c-1.326,2.652-4.54,4.676-8.446,4.881
	c0.646,1.01,1.772,1.686,3.062,1.686h17.924c2.009,0,3.638-1.627,3.638-3.637V3.639C25.2,1.719,23.709,0.165,21.824,0.027"/>
<path fill="#A8A8A8" d="M4.615,3.734c0,0.492-0.399,0.892-0.892,0.892c-0.492,0-0.891-0.399-0.891-0.892
	c0-0.493,0.398-0.892,0.891-0.892C4.216,2.842,4.615,3.241,4.615,3.734"/>
<path fill="#A8A8A8" d="M22.716,3.734c0,0.492-0.4,0.892-0.893,0.892c-0.492,0-0.891-0.399-0.891-0.892
	c0-0.493,0.398-0.892,0.891-0.892C22.316,2.842,22.716,3.241,22.716,3.734"/>
<path fill="#A8A8A8" d="M22.716,22.525c0,0.49-0.4,0.889-0.893,0.889c-0.492,0-0.891-0.398-0.891-0.889
	c0-0.494,0.398-0.893,0.891-0.893C22.316,21.633,22.716,22.031,22.716,22.525"/>
<path fill="#A8A8A8" d="M4.615,22.525c0,0.49-0.399,0.889-0.892,0.889c-0.492,0-0.891-0.398-0.891-0.889
	c0-0.494,0.398-0.893,0.891-0.893C4.216,21.633,4.615,22.031,4.615,22.525"/>
<path fill="#E5E2DC" d="M49.694,18.812c4.244-6.668,6.391-14.386,12.801-18.606c-0.087-0.006-0.171-0.026-0.262-0.026H44.309
	c-2.009,0-3.638,1.629-3.638,3.638v17.925c0,0.721,0.216,1.385,0.577,1.951C45.154,23.487,48.367,21.464,49.694,18.812"/>
<path fill="#CCCCCC" d="M62.495,0.204c-6.41,4.222-8.557,11.939-12.801,18.607c-1.326,2.652-4.54,4.676-8.446,4.881
	c0.646,1.01,1.772,1.686,3.062,1.686h17.924c2.009,0,3.638-1.627,3.638-3.637V3.816C65.871,1.896,64.38,0.342,62.495,0.204"/>
<path fill="#A8A8A8" d="M45.286,3.911c0,0.492-0.399,0.892-0.892,0.892c-0.492,0-0.891-0.399-0.891-0.892
	c0-0.493,0.398-0.892,0.891-0.892C44.887,3.02,45.286,3.418,45.286,3.911"/>
<path fill="#A8A8A8" d="M63.387,3.911c0,0.492-0.399,0.892-0.893,0.892c-0.492,0-0.891-0.399-0.891-0.892
	c0-0.493,0.398-0.892,0.891-0.892C62.988,3.02,63.387,3.418,63.387,3.911"/>
<path fill="#A8A8A8" d="M63.387,22.702c0,0.49-0.399,0.889-0.893,0.889c-0.492,0-0.891-0.398-0.891-0.889
	c0-0.494,0.398-0.893,0.891-0.893C62.988,21.81,63.387,22.208,63.387,22.702"/>
<path fill="#A8A8A8" d="M45.286,22.702c0,0.49-0.399,0.889-0.892,0.889c-0.492,0-0.891-0.398-0.891-0.889
	c0-0.494,0.398-0.893,0.891-0.893C44.887,21.81,45.286,22.208,45.286,22.702"/>
<path fill="#CCCCCC" d="M94.303,18.799c4.244-6.668,6.391-14.386,12.8-18.606c-0.086-0.006-0.17-0.026-0.262-0.026H88.918
	c-2.009,0-3.638,1.629-3.638,3.638v17.925c0,0.721,0.216,1.385,0.577,1.951C89.764,23.475,92.977,21.451,94.303,18.799"/>
<path fill="#A9A8A8" d="M107.104,0.191c-6.41,4.222-8.556,11.939-12.8,18.607c-1.326,2.652-4.539,4.676-8.445,4.881
	c0.646,1.01,1.771,1.686,3.061,1.686h17.923c2.01,0,3.639-1.627,3.639-3.637V3.804C110.48,1.884,108.99,0.329,107.104,0.191"/>
<path fill="#A8A8A8" d="M89.896,3.898c0,0.492-0.399,0.892-0.892,0.892s-0.891-0.399-0.891-0.892c0-0.493,0.398-0.892,0.891-0.892
	S89.896,3.405,89.896,3.898"/>
<path fill="#CCCCCC" d="M107.996,3.898c0,0.492-0.398,0.892-0.893,0.892c-0.492,0-0.891-0.399-0.891-0.892
	c0-0.493,0.398-0.892,0.891-0.892C107.598,3.007,107.996,3.405,107.996,3.898"/>
<path fill="#CCCCCC" d="M107.996,22.689c0,0.49-0.398,0.889-0.893,0.889c-0.492,0-0.891-0.398-0.891-0.889
	c0-0.494,0.398-0.893,0.891-0.893C107.598,21.797,107.996,22.195,107.996,22.689"/>
<path fill="#A8A8A8" d="M89.896,22.689c0,0.49-0.399,0.889-0.892,0.889s-0.891-0.398-0.891-0.889c0-0.494,0.398-0.893,0.891-0.893
	S89.896,22.195,89.896,22.689"/>
</svg>
