<?xml version="1.0" encoding="utf-8"?>
<!-- Generator: Adobe Illustrator 15.1.0, SVG Export Plug-In . SVG Version: 6.00 Build 0)  -->
<!DOCTYPE svg PUBLIC "-//W3C//DTD SVG 1.1//EN" "http://www.w3.org/Graphics/SVG/1.1/DTD/svg11.dtd">
<svg version="1.1" id="Layer_1" xmlns="http://www.w3.org/2000/svg" xmlns:xlink="http://www.w3.org/1999/xlink" x="0px" y="0px"
	 width="200px" height="25px" viewBox="0 0 200 25" enable-background="new 0 0 200 25" xml:space="preserve">
<path fill="#EFEDE6" d="M9.023,18.641c4.244-6.668,6.391-14.386,12.801-18.606c-0.087-0.006-0.171-0.026-0.262-0.026H3.638
	C1.629,0.008,0,1.637,0,3.646V21.57c0,0.721,0.216,1.385,0.577,1.951C4.483,23.316,7.696,21.293,9.023,18.641"/>
<path fill="#E5E2DC" d="M21.824,0.033c-6.41,4.222-8.557,11.939-12.801,18.607c-1.326,2.652-4.54,4.676-8.446,4.881
	c0.646,1.01,1.772,1.686,3.062,1.686h17.924c2.009,0,3.638-1.627,3.638-3.637V3.646C25.2,1.726,23.709,0.171,21.824,0.033"/>
<path fill="#A8A8A8" d="M4.615,3.74c0,0.492-0.399,0.892-0.892,0.892c-0.492,0-0.891-0.399-0.891-0.892
	c0-0.493,0.398-0.892,0.891-0.892C4.216,2.849,4.615,3.247,4.615,3.74"/>
<path fill="#A8A8A8" d="M22.716,3.74c0,0.492-0.4,0.892-0.893,0.892c-0.492,0-0.891-0.399-0.891-0.892
	c0-0.493,0.398-0.892,0.891-0.892C22.316,2.849,22.716,3.247,22.716,3.74"/>
<path fill="#A8A8A8" d="M22.716,22.531c0,0.49-0.4,0.889-0.893,0.889c-0.492,0-0.891-0.398-0.891-0.889
	c0-0.494,0.398-0.893,0.891-0.893C22.316,21.639,22.716,22.037,22.716,22.531"/>
<path fill="#A8A8A8" d="M4.615,22.531c0,0.49-0.399,0.889-0.892,0.889c-0.492,0-0.891-0.398-0.891-0.889
	c0-0.494,0.398-0.893,0.891-0.893C4.216,21.639,4.615,22.037,4.615,22.531"/>
<path fill="#E5E2DC" d="M49.694,18.818c4.244-6.668,6.391-14.386,12.801-18.607c-0.087-0.006-0.171-0.026-0.262-0.026H44.309
	c-2.009,0-3.638,1.629-3.638,3.638v17.925c0,0.721,0.216,1.385,0.577,1.951C45.154,23.494,48.367,21.471,49.694,18.818"/>
<path fill="#CCCCCC" d="M62.495,0.21c-6.41,4.222-8.557,11.939-12.801,18.608c-1.326,2.652-4.54,4.676-8.446,4.881
	c0.646,1.01,1.772,1.686,3.062,1.686h17.924c2.009,0,3.638-1.627,3.638-3.637V3.823C65.871,1.903,64.38,0.348,62.495,0.21"/>
<path fill="#A8A8A8" d="M45.286,3.917c0,0.492-0.399,0.892-0.892,0.892c-0.492,0-0.891-0.399-0.891-0.892
	c0-0.493,0.398-0.892,0.891-0.892C44.887,3.026,45.286,3.424,45.286,3.917"/>
<path fill="#A8A8A8" d="M63.387,3.917c0,0.492-0.399,0.892-0.893,0.892c-0.492,0-0.891-0.399-0.891-0.892
	c0-0.493,0.398-0.892,0.891-0.892C62.988,3.026,63.387,3.424,63.387,3.917"/>
<path fill="#A8A8A8" d="M63.387,22.709c0,0.49-0.399,0.889-0.893,0.889c-0.492,0-0.891-0.398-0.891-0.889
	c0-0.494,0.398-0.893,0.891-0.893C62.988,21.816,63.387,22.215,63.387,22.709"/>
<path fill="#A8A8A8" d="M45.286,22.709c0,0.49-0.399,0.889-0.892,0.889c-0.492,0-0.891-0.398-0.891-0.889
	c0-0.494,0.398-0.893,0.891-0.893C44.887,21.816,45.286,22.215,45.286,22.709"/>
<path fill="#CCCCCC" d="M94.303,18.805c4.244-6.667,6.391-14.385,12.8-18.606c-0.086-0.006-0.17-0.026-0.262-0.026H88.918
	c-2.009,0-3.638,1.629-3.638,3.638v17.924c0,0.721,0.216,1.385,0.577,1.951C89.764,23.48,92.977,21.457,94.303,18.805"/>
<path fill="#A9A8A8" d="M107.104,0.198c-6.41,4.222-8.556,11.939-12.8,18.607c-1.326,2.652-4.539,4.676-8.445,4.881
	c0.646,1.01,1.771,1.686,3.061,1.686h17.923c2.01,0,3.639-1.627,3.639-3.637V3.81C110.48,1.89,108.99,0.335,107.104,0.198"/>
<path fill="#A8A8A8" d="M89.896,3.905c0,0.492-0.399,0.892-0.892,0.892s-0.891-0.399-0.891-0.892c0-0.493,0.398-0.892,0.891-0.892
	S89.896,3.412,89.896,3.905"/>
<path fill="#CCCCCC" d="M107.996,3.905c0,0.492-0.398,0.892-0.893,0.892c-0.492,0-0.891-0.399-0.891-0.892
	c0-0.493,0.398-0.892,0.891-0.892C107.598,3.013,107.996,3.412,107.996,3.905"/>
<path fill="#CCCCCC" d="M107.996,22.695c0,0.49-0.398,0.889-0.893,0.889c-0.492,0-0.891-0.398-0.891-0.889
	c0-0.494,0.398-0.893,0.891-0.893C107.598,21.803,107.996,22.201,107.996,22.695"/>
<path fill="#A8A8A8" d="M89.896,22.695c0,0.49-0.399,0.889-0.892,0.889s-0.891-0.398-0.891-0.889c0-0.494,0.398-0.893,0.891-0.893
	S89.896,22.201,89.896,22.695"/>
<path fill="#A9A8A8" d="M139.865,18.83c4.244-6.667,6.391-14.385,12.801-18.606c-0.086-0.006-0.17-0.026-0.262-0.026H134.48
	c-2.01,0-3.639,1.629-3.639,3.638V21.76c0,0.721,0.217,1.385,0.578,1.951C135.326,23.506,138.539,21.482,139.865,18.83"/>
<path fill="#999999" d="M152.666,0.223c-6.41,4.222-8.557,11.939-12.801,18.607c-1.326,2.652-4.539,4.676-8.445,4.881
	c0.645,1.01,1.771,1.686,3.061,1.686h17.924c2.01,0,3.639-1.627,3.639-3.637V3.835C156.043,1.916,154.553,0.361,152.666,0.223"/>
<path fill="#CCCCCC" d="M135.457,3.93c0,0.492-0.398,0.892-0.891,0.892s-0.891-0.399-0.891-0.892c0-0.493,0.398-0.892,0.891-0.892
	S135.457,3.437,135.457,3.93"/>
<path fill="#CCCCCC" d="M153.559,3.93c0,0.492-0.398,0.892-0.893,0.892c-0.492,0-0.891-0.399-0.891-0.892
	c0-0.493,0.398-0.892,0.891-0.892C153.16,3.039,153.559,3.437,153.559,3.93"/>
<path fill="#CCCCCC" d="M153.559,22.721c0,0.49-0.398,0.889-0.893,0.889c-0.492,0-0.891-0.398-0.891-0.889
	c0-0.494,0.398-0.893,0.891-0.893C153.16,21.828,153.559,22.227,153.559,22.721"/>
<path fill="#CCCCCC" d="M135.457,22.721c0,0.49-0.398,0.889-0.891,0.889s-0.891-0.398-0.891-0.889c0-0.494,0.398-0.893,0.891-0.893
	S135.457,22.227,135.457,22.721"/>
</svg>
