<?xml version="1.0" encoding="utf-8"?>
<!-- Generator: Adobe Illustrator 15.1.0, SVG Export Plug-In . SVG Version: 6.00 Build 0)  -->
<!DOCTYPE svg PUBLIC "-//W3C//DTD SVG 1.1//EN" "http://www.w3.org/Graphics/SVG/1.1/DTD/svg11.dtd">
<svg version="1.1" id="Layer_1" xmlns="http://www.w3.org/2000/svg" xmlns:xlink="http://www.w3.org/1999/xlink" x="0px" y="0px"
	 width="200px" height="25px" viewBox="0 0 200 25" enable-background="new 0 0 200 25" xml:space="preserve">
<path fill="#EFEDE6" d="M9.526,18.533c4.244-6.668,6.391-14.386,12.801-18.607C22.24-0.08,22.156-0.1,22.065-0.1H4.142
	c-2.009,0-3.638,1.629-3.638,3.638v17.925c0,0.721,0.216,1.385,0.577,1.951C4.986,23.209,8.2,21.186,9.526,18.533"/>
<path fill="#E5E2DC" d="M22.327-0.075c-6.41,4.222-8.557,11.939-12.801,18.608c-1.326,2.652-4.54,4.676-8.446,4.881
	c0.646,1.01,1.772,1.686,3.062,1.686h17.924c2.009,0,3.638-1.627,3.638-3.637V3.538C25.704,1.618,24.213,0.063,22.327-0.075"/>
<path fill="#A8A8A8" d="M5.119,3.632c0,0.492-0.399,0.892-0.892,0.892c-0.492,0-0.891-0.399-0.891-0.892
	c0-0.493,0.398-0.892,0.891-0.892C4.719,2.741,5.119,3.139,5.119,3.632"/>
<path fill="#A8A8A8" d="M23.22,3.632c0,0.492-0.4,0.892-0.893,0.892c-0.492,0-0.891-0.399-0.891-0.892
	c0-0.493,0.398-0.892,0.891-0.892C22.82,2.741,23.22,3.139,23.22,3.632"/>
<path fill="#A8A8A8" d="M23.22,22.424c0,0.49-0.4,0.889-0.893,0.889c-0.492,0-0.891-0.398-0.891-0.889
	c0-0.494,0.398-0.893,0.891-0.893C22.82,21.531,23.22,21.93,23.22,22.424"/>
<path fill="#A8A8A8" d="M5.119,22.424c0,0.49-0.399,0.889-0.892,0.889c-0.492,0-0.891-0.398-0.891-0.889
	c0-0.494,0.398-0.893,0.891-0.893C4.719,21.531,5.119,21.93,5.119,22.424"/>
<path fill="#E5E2DC" d="M50.197,18.71c4.244-6.668,6.391-14.386,12.801-18.606c-0.087-0.006-0.171-0.026-0.262-0.026H44.813
	c-2.009,0-3.638,1.629-3.638,3.638V21.64c0,0.721,0.216,1.385,0.577,1.951C45.657,23.386,48.871,21.362,50.197,18.71"/>
<path fill="#CCCCCC" d="M62.998,0.103c-6.41,4.222-8.557,11.939-12.801,18.607c-1.326,2.652-4.54,4.676-8.446,4.881
	c0.646,1.01,1.772,1.686,3.062,1.686h17.924c2.009,0,3.638-1.627,3.638-3.637V3.715C66.374,1.795,64.884,0.24,62.998,0.103"/>
<path fill="#A8A8A8" d="M45.79,3.81c0,0.492-0.399,0.892-0.892,0.892c-0.492,0-0.891-0.399-0.891-0.892
	c0-0.493,0.398-0.892,0.891-0.892C45.39,2.918,45.79,3.316,45.79,3.81"/>
<path fill="#A8A8A8" d="M63.891,3.81c0,0.492-0.399,0.892-0.893,0.892c-0.492,0-0.891-0.399-0.891-0.892
	c0-0.493,0.398-0.892,0.891-0.892C63.491,2.918,63.891,3.316,63.891,3.81"/>
<path fill="#A8A8A8" d="M63.891,22.601c0,0.49-0.399,0.889-0.893,0.889c-0.492,0-0.891-0.398-0.891-0.889
	c0-0.494,0.398-0.893,0.891-0.893C63.491,21.708,63.891,22.106,63.891,22.601"/>
<path fill="#A8A8A8" d="M45.79,22.601c0,0.49-0.399,0.889-0.892,0.889c-0.492,0-0.891-0.398-0.891-0.889
	c0-0.494,0.398-0.893,0.891-0.893C45.39,21.708,45.79,22.106,45.79,22.601"/>
<path fill="#CCCCCC" d="M94.807,18.697c4.244-6.668,6.39-14.386,12.8-18.606c-0.086-0.006-0.17-0.026-0.262-0.026H89.422
	c-2.009,0-3.638,1.629-3.638,3.638v17.925c0,0.721,0.216,1.385,0.577,1.951C90.267,23.373,93.48,21.35,94.807,18.697"/>
<path fill="#A9A8A8" d="M107.607,0.09c-6.41,4.222-8.557,11.939-12.8,18.607c-1.326,2.652-4.54,4.676-8.446,4.881
	c0.646,1.01,1.772,1.686,3.062,1.686h17.923c2.01,0,3.639-1.627,3.639-3.637V3.702C110.984,1.782,109.494,0.228,107.607,0.09"/>
<path fill="#A8A8A8" d="M90.399,3.797c0,0.492-0.399,0.892-0.892,0.892c-0.492,0-0.891-0.399-0.891-0.892
	c0-0.493,0.398-0.892,0.891-0.892C90,2.905,90.399,3.304,90.399,3.797"/>
<path fill="#CCCCCC" d="M108.5,3.797c0,0.492-0.398,0.892-0.893,0.892c-0.492,0-0.891-0.399-0.891-0.892
	c0-0.493,0.398-0.892,0.891-0.892C108.102,2.905,108.5,3.304,108.5,3.797"/>
<path fill="#CCCCCC" d="M108.5,22.588c0,0.49-0.398,0.889-0.893,0.889c-0.492,0-0.891-0.398-0.891-0.889
	c0-0.494,0.398-0.893,0.891-0.893C108.102,21.695,108.5,22.094,108.5,22.588"/>
<path fill="#A8A8A8" d="M90.399,22.588c0,0.49-0.399,0.889-0.892,0.889c-0.492,0-0.891-0.398-0.891-0.889
	c0-0.494,0.398-0.893,0.891-0.893C90,21.695,90.399,22.094,90.399,22.588"/>
<path fill="#A9A8A8" d="M140.368,18.723c4.244-6.668,6.391-14.386,12.801-18.606c-0.086-0.006-0.17-0.026-0.262-0.026h-17.924
	c-2.009,0-3.638,1.629-3.638,3.638v17.925c0,0.721,0.216,1.385,0.577,1.951C135.829,23.398,139.042,21.375,140.368,18.723"/>
<path fill="#999999" d="M153.169,0.115c-6.41,4.222-8.557,11.939-12.801,18.607c-1.326,2.652-4.539,4.676-8.445,4.881
	c0.646,1.01,1.771,1.686,3.061,1.686h17.924c2.01,0,3.64-1.627,3.64-3.637V3.728C156.547,1.808,155.056,0.253,153.169,0.115"/>
<path fill="#CCCCCC" d="M135.961,3.822c0,0.492-0.399,0.892-0.892,0.892s-0.891-0.399-0.891-0.892c0-0.493,0.398-0.892,0.891-0.892
	S135.961,3.329,135.961,3.822"/>
<path fill="#CCCCCC" d="M154.062,3.822c0,0.492-0.398,0.892-0.893,0.892c-0.492,0-0.891-0.399-0.891-0.892
	c0-0.493,0.398-0.892,0.891-0.892C153.663,2.931,154.062,3.329,154.062,3.822"/>
<path fill="#CCCCCC" d="M154.062,22.613c0,0.49-0.398,0.889-0.893,0.889c-0.492,0-0.891-0.398-0.891-0.889
	c0-0.494,0.398-0.893,0.891-0.893C153.663,21.721,154.062,22.119,154.062,22.613"/>
<path fill="#CCCCCC" d="M135.961,22.613c0,0.49-0.399,0.889-0.892,0.889s-0.891-0.398-0.891-0.889c0-0.494,0.398-0.893,0.891-0.893
	S135.961,22.119,135.961,22.613"/>
<path fill="#999999" d="M183.823,18.672c4.244-6.668,6.391-14.386,12.801-18.606c-0.087-0.006-0.171-0.026-0.262-0.026h-17.924
	c-2.01,0-3.639,1.629-3.639,3.638v17.925c0,0.721,0.217,1.385,0.577,1.951C179.283,23.348,182.497,21.324,183.823,18.672"/>
<path fill="#666766" d="M196.624,0.064c-6.41,4.222-8.557,11.939-12.801,18.607c-1.326,2.652-4.54,4.676-8.446,4.881
	c0.646,1.01,1.772,1.686,3.062,1.686h17.924c2.009,0,3.638-1.627,3.638-3.637V3.677C200,1.757,198.51,0.202,196.624,0.064"/>
<path fill="#CCCCCC" d="M179.415,3.771c0,0.492-0.398,0.892-0.892,0.892c-0.492,0-0.891-0.399-0.891-0.892
	c0-0.493,0.398-0.892,0.891-0.892C179.017,2.88,179.415,3.278,179.415,3.771"/>
<path fill="#CCCCCC" d="M197.517,3.771c0,0.492-0.399,0.892-0.893,0.892c-0.492,0-0.891-0.399-0.891-0.892
	c0-0.493,0.398-0.892,0.891-0.892C197.117,2.88,197.517,3.278,197.517,3.771"/>
<path fill="#CCCCCC" d="M197.517,22.563c0,0.49-0.399,0.889-0.893,0.889c-0.492,0-0.891-0.398-0.891-0.889
	c0-0.494,0.398-0.893,0.891-0.893C197.117,21.67,197.517,22.068,197.517,22.563"/>
<path fill="#CCCCCC" d="M179.415,22.563c0,0.49-0.398,0.889-0.892,0.889c-0.492,0-0.891-0.398-0.891-0.889
	c0-0.494,0.398-0.893,0.891-0.893C179.017,21.67,179.415,22.068,179.415,22.563"/>
</svg>
