<?xml version="1.0" encoding="utf-8"?>
<!-- Generator: Adobe Illustrator 15.1.0, SVG Export Plug-In . SVG Version: 6.00 Build 0)  -->
<!DOCTYPE svg PUBLIC "-//W3C//DTD SVG 1.1//EN" "http://www.w3.org/Graphics/SVG/1.1/DTD/svg11.dtd">
<svg version="1.1" id="Layer_1" xmlns="http://www.w3.org/2000/svg" xmlns:xlink="http://www.w3.org/1999/xlink" x="0px" y="0px"
	 width="200px" height="25px" viewBox="0 0 200 25" enable-background="new 0 0 200 25" xml:space="preserve">
<path fill="#EFEDE6" d="M8.526,18.533c4.244-6.668,6.391-14.386,12.801-18.607C21.24-0.08,21.156-0.1,21.065-0.1H3.142
	c-2.009,0-3.638,1.629-3.638,3.638v17.925c0,0.721,0.216,1.385,0.577,1.951C3.986,23.209,7.2,21.186,8.526,18.533"/>
<path fill="#E5E2DC" d="M21.327-0.075c-6.41,4.222-8.557,11.939-12.801,18.608c-1.326,2.652-4.54,4.676-8.446,4.881
	c0.646,1.01,1.772,1.686,3.062,1.686h17.924c2.009,0,3.638-1.627,3.638-3.637V3.538C24.704,1.618,23.213,0.063,21.327-0.075"/>
<path fill="#A8A8A8" d="M4.119,3.632c0,0.492-0.399,0.892-0.892,0.892c-0.492,0-0.891-0.399-0.891-0.892
	c0-0.493,0.398-0.892,0.891-0.892C3.719,2.741,4.119,3.139,4.119,3.632"/>
<path fill="#A8A8A8" d="M22.22,3.632c0,0.492-0.4,0.892-0.893,0.892c-0.492,0-0.891-0.399-0.891-0.892
	c0-0.493,0.398-0.892,0.891-0.892C21.82,2.741,22.22,3.139,22.22,3.632"/>
<path fill="#A8A8A8" d="M22.22,22.424c0,0.49-0.4,0.889-0.893,0.889c-0.492,0-0.891-0.398-0.891-0.889
	c0-0.494,0.398-0.893,0.891-0.893C21.82,21.531,22.22,21.93,22.22,22.424"/>
<path fill="#A8A8A8" d="M4.119,22.424c0,0.49-0.399,0.889-0.892,0.889c-0.492,0-0.891-0.398-0.891-0.889
	c0-0.494,0.398-0.893,0.891-0.893C3.719,21.531,4.119,21.93,4.119,22.424"/>
<path fill="#EFEDE6" d="M50.113,18.633c4.244-6.668,6.391-14.386,12.801-18.606C62.827,0.021,62.743,0,62.652,0H44.729
	c-2.009,0-3.638,1.629-3.638,3.638v17.925c0,0.721,0.216,1.385,0.577,1.951C45.573,23.309,48.787,21.285,50.113,18.633"/>
<path fill="#E5E2DC" d="M62.914,0.025c-6.41,4.222-8.557,11.939-12.801,18.607c-1.326,2.652-4.54,4.676-8.446,4.881
	c0.646,1.01,1.772,1.686,3.062,1.686h17.924c2.009,0,3.638-1.627,3.638-3.637V3.638C66.29,1.718,64.8,0.163,62.914,0.025"/>
<path fill="#A8A8A8" d="M45.706,3.732c0,0.492-0.399,0.892-0.892,0.892c-0.492,0-0.891-0.399-0.891-0.892
	c0-0.493,0.398-0.892,0.891-0.892C45.306,2.841,45.706,3.239,45.706,3.732"/>
<path fill="#A8A8A8" d="M63.807,3.732c0,0.492-0.399,0.892-0.893,0.892c-0.492,0-0.891-0.399-0.891-0.892
	c0-0.493,0.398-0.892,0.891-0.892C63.407,2.841,63.807,3.239,63.807,3.732"/>
<path fill="#A8A8A8" d="M63.807,22.523c0,0.49-0.399,0.889-0.893,0.889c-0.492,0-0.891-0.398-0.891-0.889
	c0-0.494,0.398-0.893,0.891-0.893C63.407,21.631,63.807,22.029,63.807,22.523"/>
<path fill="#A8A8A8" d="M45.706,22.523c0,0.49-0.399,0.889-0.892,0.889c-0.492,0-0.891-0.398-0.891-0.889
	c0-0.494,0.398-0.893,0.891-0.893C45.306,21.631,45.706,22.029,45.706,22.523"/>
<path fill="#EFEDE6" d="M95.354,18.646c4.244-6.669,6.391-14.387,12.8-18.607c-0.086-0.006-0.17-0.026-0.262-0.026H89.97
	c-2.009,0-3.638,1.629-3.638,3.638v17.926c0,0.721,0.216,1.385,0.577,1.951C90.814,23.322,94.028,21.299,95.354,18.646"/>
<path fill="#E5E2DC" d="M108.154,0.038c-6.409,4.222-8.556,11.939-12.8,18.608c-1.326,2.652-4.54,4.676-8.446,4.881
	c0.646,1.01,1.772,1.686,3.062,1.686h17.923c2.01,0,3.639-1.627,3.639-3.637V3.65C111.531,1.73,110.041,0.176,108.154,0.038"/>
<path fill="#A8A8A8" d="M90.947,3.745c0,0.492-0.399,0.892-0.892,0.892c-0.492,0-0.891-0.399-0.891-0.892
	c0-0.493,0.398-0.892,0.891-0.892C90.547,2.854,90.947,3.252,90.947,3.745"/>
<path fill="#A8A8A8" d="M109.047,3.745c0,0.492-0.398,0.892-0.893,0.892c-0.492,0-0.891-0.399-0.891-0.892
	c0-0.493,0.398-0.892,0.891-0.892C108.648,2.854,109.047,3.252,109.047,3.745"/>
<path fill="#A8A8A8" d="M109.047,22.537c0,0.49-0.398,0.889-0.893,0.889c-0.492,0-0.891-0.398-0.891-0.889
	c0-0.494,0.398-0.893,0.891-0.893C108.648,21.645,109.047,22.043,109.047,22.537"/>
<path fill="#A8A8A8" d="M90.947,22.537c0,0.49-0.399,0.889-0.892,0.889c-0.492,0-0.891-0.398-0.891-0.889
	c0-0.494,0.398-0.893,0.891-0.893C90.547,21.645,90.947,22.043,90.947,22.537"/>
<path fill="#EFEDE6" d="M140.916,18.658c4.242-6.668,6.391-14.386,12.801-18.606c-0.088-0.006-0.172-0.026-0.262-0.026h-17.924
	c-2.01,0-3.639,1.629-3.639,3.638v17.925c0,0.721,0.217,1.385,0.576,1.951C136.375,23.334,139.588,21.311,140.916,18.658"/>
<path fill="#E5E2DC" d="M153.717,0.051c-6.41,4.222-8.559,11.939-12.801,18.607c-1.326,2.652-4.541,4.676-8.447,4.881
	c0.646,1.01,1.771,1.686,3.063,1.686h17.924c2.008,0,3.637-1.627,3.637-3.637V3.663C157.092,1.743,155.602,0.188,153.717,0.051"/>
<path fill="#A8A8A8" d="M136.508,3.758c0,0.492-0.4,0.892-0.893,0.892s-0.891-0.399-0.891-0.892c0-0.493,0.398-0.892,0.891-0.892
	S136.508,3.265,136.508,3.758"/>
<path fill="#A8A8A8" d="M154.609,3.758c0,0.492-0.4,0.892-0.893,0.892s-0.891-0.399-0.891-0.892c0-0.493,0.398-0.892,0.891-0.892
	S154.609,3.265,154.609,3.758"/>
<path fill="#A8A8A8" d="M154.609,22.549c0,0.49-0.4,0.889-0.893,0.889s-0.891-0.398-0.891-0.889c0-0.494,0.398-0.893,0.891-0.893
	S154.609,22.055,154.609,22.549"/>
<path fill="#A8A8A8" d="M136.508,22.549c0,0.49-0.4,0.889-0.893,0.889s-0.891-0.398-0.891-0.889c0-0.494,0.398-0.893,0.891-0.893
	S136.508,22.055,136.508,22.549"/>
<path fill="#EFEDE6" d="M184.369,18.646c4.244-6.669,6.391-14.387,12.801-18.607c-0.086-0.006-0.17-0.026-0.262-0.026h-17.924
	c-2.01,0-3.639,1.629-3.639,3.638v17.926c0,0.721,0.217,1.385,0.578,1.951C179.83,23.322,183.043,21.299,184.369,18.646"/>
<path fill="#E5E2DC" d="M197.17,0.038c-6.41,4.222-8.557,11.939-12.801,18.608c-1.326,2.652-4.539,4.676-8.445,4.881
	c0.645,1.01,1.771,1.686,3.061,1.686h17.924c2.01,0,3.639-1.627,3.639-3.637V3.65C200.547,1.73,199.057,0.176,197.17,0.038"/>
<path fill="#A8A8A8" d="M179.961,3.745c0,0.492-0.398,0.892-0.891,0.892s-0.891-0.399-0.891-0.892c0-0.493,0.398-0.892,0.891-0.892
	S179.961,3.252,179.961,3.745"/>
<path fill="#A8A8A8" d="M198.063,3.745c0,0.492-0.398,0.892-0.893,0.892c-0.492,0-0.891-0.399-0.891-0.892
	c0-0.493,0.398-0.892,0.891-0.892C197.664,2.854,198.063,3.252,198.063,3.745"/>
<path fill="#A8A8A8" d="M198.063,22.537c0,0.49-0.398,0.889-0.893,0.889c-0.492,0-0.891-0.398-0.891-0.889
	c0-0.494,0.398-0.893,0.891-0.893C197.664,21.645,198.063,22.043,198.063,22.537"/>
<path fill="#A8A8A8" d="M179.961,22.537c0,0.49-0.398,0.889-0.891,0.889s-0.891-0.398-0.891-0.889c0-0.494,0.398-0.893,0.891-0.893
	S179.961,22.043,179.961,22.537"/>
</svg>
