<?xml version="1.0" encoding="utf-8"?>
<!-- Generator: Adobe Illustrator 18.1.1, SVG Export Plug-In . SVG Version: 6.00 Build 0)  -->
<svg version="1.1" id="Layer_1" xmlns="http://www.w3.org/2000/svg" xmlns:xlink="http://www.w3.org/1999/xlink" x="0px" y="0px"
	 viewBox="-19 113 200 161.3" enable-background="new -19 113 200 161.3" xml:space="preserve">
<g>
	<path fill="#EFEDE6" d="M-10,132.6c4.2-6.7,6.4-14.4,12.8-18.6c-0.1,0-0.2,0-0.3,0h-17.9c-2,0-3.6,1.6-3.6,3.6v17.9
		c0,0.7,0.2,1.4,0.6,2C-14.5,137.3-11.3,135.3-10,132.6"/>
	<path fill="#E5E2DC" d="M2.8,114c-6.4,4.2-8.6,11.9-12.8,18.6c-1.3,2.7-4.5,4.7-8.4,4.9c0.6,1,1.8,1.7,3.1,1.7H2.6
		c2,0,3.6-1.6,3.6-3.6v-17.9C6.2,115.7,4.7,114.2,2.8,114"/>
	<path fill="#A8A8A8" d="M3.7,117.7c0,0.5-0.4,0.9-0.9,0.9c-0.5,0-0.9-0.4-0.9-0.9c0-0.5,0.4-0.9,0.9-0.9
		C3.3,116.8,3.7,117.2,3.7,117.7"/>
	<path fill="#A8A8A8" d="M3.7,136.5c0,0.5-0.4,0.9-0.9,0.9c-0.5,0-0.9-0.4-0.9-0.9c0-0.5,0.4-0.9,0.9-0.9S3.7,136,3.7,136.5"/>
	<path fill="#EFEDE6" d="M30.1,132.7c4.2-6.7,6.4-14.4,12.8-18.6c-0.1,0-0.2,0-0.3,0H24.7c-2,0-3.6,1.6-3.6,3.6v17.9
		c0,0.7,0.2,1.4,0.6,2C25.6,137.4,28.8,135.4,30.1,132.7"/>
	<path fill="#E5E2DC" d="M42.9,114.1c-6.4,4.2-8.6,11.9-12.8,18.6c-1.3,2.7-4.5,4.7-8.4,4.9c0.6,1,1.8,1.7,3.1,1.7h17.9
		c2,0,3.6-1.6,3.6-3.6v-17.9C46.3,115.8,44.8,114.3,42.9,114.1"/>
	<path fill="#A8A8A8" d="M25.7,117.8c0,0.5-0.4,0.9-0.9,0.9c-0.5,0-0.9-0.4-0.9-0.9c0-0.5,0.4-0.9,0.9-0.9
		C25.3,116.9,25.7,117.3,25.7,117.8"/>
	<path fill="#A8A8A8" d="M43.8,117.8c0,0.5-0.4,0.9-0.9,0.9c-0.5,0-0.9-0.4-0.9-0.9c0-0.5,0.4-0.9,0.9-0.9
		C43.4,116.9,43.8,117.3,43.8,117.8"/>
	<path fill="#A8A8A8" d="M43.8,136.6c0,0.5-0.4,0.9-0.9,0.9c-0.5,0-0.9-0.4-0.9-0.9c0-0.5,0.4-0.9,0.9-0.9
		C43.4,135.7,43.8,136.1,43.8,136.6"/>
	<path fill="#A8A8A8" d="M25.7,136.6c0,0.5-0.4,0.9-0.9,0.9c-0.5,0-0.9-0.4-0.9-0.9c0-0.5,0.4-0.9,0.9-0.9
		C25.3,135.7,25.7,136.1,25.7,136.6"/>
	<path fill="#EFEDE6" d="M75.4,132.7c4.2-6.7,6.4-14.4,12.8-18.6c-0.1,0-0.2,0-0.3,0H70c-2,0-3.6,1.6-3.6,3.6v17.9
		c0,0.7,0.2,1.4,0.6,2C70.8,137.4,74,135.4,75.4,132.7"/>
	<path fill="#E5E2DC" d="M88.2,114.1c-6.4,4.2-8.6,11.9-12.8,18.6c-1.3,2.7-4.5,4.7-8.4,4.9c0.6,1,1.8,1.7,3.1,1.7h17.9
		c2,0,3.6-1.6,3.6-3.6v-17.9C91.5,115.8,90,114.3,88.2,114.1"/>
	<path fill="#A8A8A8" d="M70.9,117.8c0,0.5-0.4,0.9-0.9,0.9c-0.5,0-0.9-0.4-0.9-0.9c0-0.5,0.4-0.9,0.9-0.9
		C70.5,117,70.9,117.4,70.9,117.8"/>
	<path fill="#A8A8A8" d="M89,117.8c0,0.5-0.4,0.9-0.9,0.9c-0.5,0-0.9-0.4-0.9-0.9c0-0.5,0.4-0.9,0.9-0.9C88.6,117,89,117.4,89,117.8
		"/>
	<path fill="#A8A8A8" d="M89,136.6c0,0.5-0.4,0.9-0.9,0.9c-0.5,0-0.9-0.4-0.9-0.9c0-0.5,0.4-0.9,0.9-0.9
		C88.6,135.7,89,136.1,89,136.6"/>
	<path fill="#A8A8A8" d="M70.9,136.6c0,0.5-0.4,0.9-0.9,0.9c-0.5,0-0.9-0.4-0.9-0.9c0-0.5,0.4-0.9,0.9-0.9
		C70.5,135.7,70.9,136.1,70.9,136.6"/>
	<path fill="#EFEDE6" d="M120.9,132.8c4.2-6.7,6.4-14.4,12.8-18.6c-0.1,0-0.2,0-0.3,0h-17.9c-2,0-3.6,1.6-3.6,3.6v17.9
		c0,0.7,0.2,1.4,0.6,2C116.4,137.4,119.6,135.4,120.9,132.8"/>
	<path fill="#E5E2DC" d="M133.7,114.2c-6.4,4.2-8.6,11.9-12.8,18.6c-1.3,2.7-4.5,4.7-8.4,4.9c0.6,1,1.8,1.7,3.1,1.7h17.9
		c2,0,3.6-1.6,3.6-3.6v-17.9C137.1,115.8,135.6,114.3,133.7,114.2"/>
	<path fill="#A8A8A8" d="M116.5,117.9c0,0.5-0.4,0.9-0.9,0.9s-0.9-0.4-0.9-0.9c0-0.5,0.4-0.9,0.9-0.9S116.5,117.4,116.5,117.9"/>
	<path fill="#A8A8A8" d="M134.6,117.9c0,0.5-0.4,0.9-0.9,0.9s-0.9-0.4-0.9-0.9c0-0.5,0.4-0.9,0.9-0.9S134.6,117.4,134.6,117.9"/>
	<path fill="#A8A8A8" d="M134.6,136.6c0,0.5-0.4,0.9-0.9,0.9s-0.9-0.4-0.9-0.9c0-0.5,0.4-0.9,0.9-0.9S134.6,136.2,134.6,136.6"/>
	<path fill="#A8A8A8" d="M116.5,136.6c0,0.5-0.4,0.9-0.9,0.9s-0.9-0.4-0.9-0.9c0-0.5,0.4-0.9,0.9-0.9S116.5,136.2,116.5,136.6"/>
	<path fill="#EFEDE6" d="M164.4,132.7c4.2-6.7,6.4-14.4,12.8-18.6c-0.1,0-0.2,0-0.3,0H159c-2,0-3.6,1.6-3.6,3.6v17.9
		c0,0.7,0.2,1.4,0.6,2C159.8,137.4,163,135.4,164.4,132.7"/>
	<path fill="#E5E2DC" d="M177.2,114.1c-6.4,4.2-8.6,11.9-12.8,18.6c-1.3,2.7-4.5,4.7-8.4,4.9c0.6,1,1.8,1.7,3.1,1.7h17.9
		c2,0,3.6-1.6,3.6-3.6v-17.9C180.5,115.8,179.1,114.3,177.2,114.1"/>
	<path fill="#A8A8A8" d="M160,117.8c0,0.5-0.4,0.9-0.9,0.9s-0.9-0.4-0.9-0.9c0-0.5,0.4-0.9,0.9-0.9S160,117.4,160,117.8"/>
	<path fill="#A8A8A8" d="M178.1,117.8c0,0.5-0.4,0.9-0.9,0.9c-0.5,0-0.9-0.4-0.9-0.9c0-0.5,0.4-0.9,0.9-0.9
		C177.7,117,178.1,117.4,178.1,117.8"/>
	<path fill="#A8A8A8" d="M178.1,136.6c0,0.5-0.4,0.9-0.9,0.9c-0.5,0-0.9-0.4-0.9-0.9c0-0.5,0.4-0.9,0.9-0.9
		C177.7,135.7,178.1,136.1,178.1,136.6"/>
	<path fill="#A8A8A8" d="M160,136.6c0,0.5-0.4,0.9-0.9,0.9s-0.9-0.4-0.9-0.9c0-0.5,0.4-0.9,0.9-0.9S160,136.1,160,136.6"/>
</g>
<path fill="#A8A8A8" d="M-14.4,117.7c0,0.5-0.4,0.9-0.9,0.9c-0.5,0-0.9-0.4-0.9-0.9c0-0.5,0.4-0.9,0.9-0.9
	C-14.8,116.8-14.4,117.2-14.4,117.7"/>
<path fill="#A8A8A8" d="M-14.4,136.5c0,0.5-0.4,0.9-0.9,0.9c-0.5,0-0.9-0.4-0.9-0.9c0-0.5,0.4-0.9,0.9-0.9
	C-14.8,135.6-14.4,136-14.4,136.5"/>
<g>
	<path fill="#EFEDE6" d="M-9.7,159.2c4.2-6.7,6.4-14.4,12.8-18.6c-0.1,0-0.2,0-0.3,0h-17.9c-2,0-3.6,1.6-3.6,3.6v17.9
		c0,0.7,0.2,1.4,0.6,2C-14.3,163.9-11.1,161.9-9.7,159.2"/>
	<path fill="#E5E2DC" d="M3.1,140.6c-6.4,4.2-8.6,11.9-12.8,18.6c-1.3,2.7-4.5,4.7-8.4,4.9c0.6,1,1.8,1.7,3.1,1.7H2.8
		c2,0,3.6-1.6,3.6-3.6v-17.9C6.5,142.3,5,140.8,3.1,140.6"/>
	<path fill="#A8A8A8" d="M-14.1,144.3c0,0.5-0.4,0.9-0.9,0.9c-0.5,0-0.9-0.4-0.9-0.9c0-0.5,0.4-0.9,0.9-0.9
		C-14.5,143.4-14.1,143.8-14.1,144.3"/>
	<path fill="#A8A8A8" d="M4,144.3c0,0.5-0.4,0.9-0.9,0.9c-0.5,0-0.9-0.4-0.9-0.9c0-0.5,0.4-0.9,0.9-0.9C3.6,143.4,4,143.8,4,144.3"
		/>
	<path fill="#A8A8A8" d="M4,163.1c0,0.5-0.4,0.9-0.9,0.9c-0.5,0-0.9-0.4-0.9-0.9c0-0.5,0.4-0.9,0.9-0.9S4,162.6,4,163.1"/>
	<path fill="#A8A8A8" d="M-14.1,163.1c0,0.5-0.4,0.9-0.9,0.9c-0.5,0-0.9-0.4-0.9-0.9c0-0.5,0.4-0.9,0.9-0.9
		C-14.5,162.2-14.1,162.6-14.1,163.1"/>
	<path fill="#E5E2DC" d="M30.9,159.4c4.2-6.7,6.4-14.4,12.8-18.6c-0.1,0-0.2,0-0.3,0H25.6c-2,0-3.6,1.6-3.6,3.6v17.9
		c0,0.7,0.2,1.4,0.6,2C26.4,164.1,29.6,162.1,30.9,159.4"/>
	<path fill="#CCCCCC" d="M43.7,140.8c-6.4,4.2-8.6,11.9-12.8,18.6c-1.3,2.7-4.5,4.7-8.4,4.9c0.6,1,1.8,1.7,3.1,1.7h17.9
		c2,0,3.6-1.6,3.6-3.6v-17.9C47.1,142.5,45.6,140.9,43.7,140.8"/>
	<path fill="#A8A8A8" d="M26.5,144.5c0,0.5-0.4,0.9-0.9,0.9c-0.5,0-0.9-0.4-0.9-0.9c0-0.5,0.4-0.9,0.9-0.9
		C26.1,143.6,26.5,144,26.5,144.5"/>
	<path fill="#A8A8A8" d="M44.6,144.5c0,0.5-0.4,0.9-0.9,0.9c-0.5,0-0.9-0.4-0.9-0.9c0-0.5,0.4-0.9,0.9-0.9
		C44.2,143.6,44.6,144,44.6,144.5"/>
	<path fill="#A8A8A8" d="M44.6,163.3c0,0.5-0.4,0.9-0.9,0.9c-0.5,0-0.9-0.4-0.9-0.9c0-0.5,0.4-0.9,0.9-0.9
		C44.2,162.4,44.6,162.8,44.6,163.3"/>
	<path fill="#A8A8A8" d="M26.5,163.3c0,0.5-0.4,0.9-0.9,0.9c-0.5,0-0.9-0.4-0.9-0.9c0-0.5,0.4-0.9,0.9-0.9
		C26.1,162.4,26.5,162.8,26.5,163.3"/>
	<path fill="#CCCCCC" d="M75.6,159.4c4.2-6.7,6.4-14.4,12.8-18.6c-0.1,0-0.2,0-0.3,0H70.2c-2,0-3.6,1.6-3.6,3.6v17.9
		c0,0.7,0.2,1.4,0.6,2C71,164.1,74.2,162.1,75.6,159.4"/>
	<path fill="#A9A8A8" d="M88.4,140.8c-6.4,4.2-8.6,11.9-12.8,18.6c-1.3,2.7-4.5,4.7-8.4,4.9c0.6,1,1.8,1.7,3.1,1.7h17.9
		c2,0,3.6-1.6,3.6-3.6v-17.9C91.7,142.5,90.2,140.9,88.4,140.8"/>
	<path fill="#A8A8A8" d="M71.1,144.5c0,0.5-0.4,0.9-0.9,0.9c-0.5,0-0.9-0.4-0.9-0.9s0.4-0.9,0.9-0.9S71.1,144,71.1,144.5"/>
	<path fill="#CCCCCC" d="M89.2,144.5c0,0.5-0.4,0.9-0.9,0.9c-0.5,0-0.9-0.4-0.9-0.9s0.4-0.9,0.9-0.9C88.8,143.6,89.2,144,89.2,144.5
		"/>
	<path fill="#CCCCCC" d="M89.2,163.3c0,0.5-0.4,0.9-0.9,0.9c-0.5,0-0.9-0.4-0.9-0.9c0-0.5,0.4-0.9,0.9-0.9
		C88.8,162.4,89.2,162.8,89.2,163.3"/>
	<path fill="#A8A8A8" d="M71.1,163.3c0,0.5-0.4,0.9-0.9,0.9c-0.5,0-0.9-0.4-0.9-0.9c0-0.5,0.4-0.9,0.9-0.9S71.1,162.8,71.1,163.3"/>
	<path fill="#A9A8A8" d="M121.1,159.4c4.2-6.7,6.4-14.4,12.8-18.6c-0.1,0-0.2,0-0.3,0h-17.9c-2,0-3.6,1.6-3.6,3.6v17.9
		c0,0.7,0.2,1.4,0.6,2C116.6,164.1,119.8,162.1,121.1,159.4"/>
	<path fill="#999999" d="M133.9,140.8c-6.4,4.2-8.6,11.9-12.8,18.6c-1.3,2.7-4.5,4.7-8.4,4.9c0.6,1,1.8,1.7,3.1,1.7h17.9
		c2,0,3.6-1.6,3.6-3.6v-17.9C137.3,142.5,135.8,141,133.9,140.8"/>
	<path fill="#CCCCCC" d="M116.7,144.5c0,0.5-0.4,0.9-0.9,0.9s-0.9-0.4-0.9-0.9s0.4-0.9,0.9-0.9S116.7,144,116.7,144.5"/>
	<path fill="#CCCCCC" d="M134.8,144.5c0,0.5-0.4,0.9-0.9,0.9c-0.5,0-0.9-0.4-0.9-0.9s0.4-0.9,0.9-0.9
		C134.4,143.6,134.8,144,134.8,144.5"/>
	<path fill="#CCCCCC" d="M134.8,163.3c0,0.5-0.4,0.9-0.9,0.9c-0.5,0-0.9-0.4-0.9-0.9c0-0.5,0.4-0.9,0.9-0.9
		C134.4,162.4,134.8,162.8,134.8,163.3"/>
	<path fill="#CCCCCC" d="M116.7,163.3c0,0.5-0.4,0.9-0.9,0.9s-0.9-0.4-0.9-0.9c0-0.5,0.4-0.9,0.9-0.9S116.7,162.8,116.7,163.3"/>
	<path fill="#999999" d="M164.6,159.4c4.2-6.7,6.4-14.4,12.8-18.6c-0.1,0-0.2,0-0.3,0h-17.9c-2,0-3.6,1.6-3.6,3.6v17.9
		c0,0.7,0.2,1.4,0.6,2C160,164.1,163.2,162,164.6,159.4"/>
	<path fill="#666766" d="M177.4,140.8c-6.4,4.2-8.6,11.9-12.8,18.6c-1.3,2.7-4.5,4.7-8.4,4.9c0.6,1,1.8,1.7,3.1,1.7h17.9
		c2,0,3.6-1.6,3.6-3.6v-17.9C180.7,142.5,179.3,140.9,177.4,140.8"/>
	<path fill="#CCCCCC" d="M160.2,144.5c0,0.5-0.4,0.9-0.9,0.9c-0.5,0-0.9-0.4-0.9-0.9s0.4-0.9,0.9-0.9
		C159.8,143.6,160.2,144,160.2,144.5"/>
	<path fill="#CCCCCC" d="M178.3,144.5c0,0.5-0.4,0.9-0.9,0.9c-0.5,0-0.9-0.4-0.9-0.9s0.4-0.9,0.9-0.9
		C177.9,143.6,178.3,144,178.3,144.5"/>
	<path fill="#CCCCCC" d="M178.3,163.3c0,0.5-0.4,0.9-0.9,0.9c-0.5,0-0.9-0.4-0.9-0.9c0-0.5,0.4-0.9,0.9-0.9S178.3,162.8,178.3,163.3
		"/>
	<path fill="#CCCCCC" d="M160.2,163.3c0,0.5-0.4,0.9-0.9,0.9c-0.5,0-0.9-0.4-0.9-0.9c0-0.5,0.4-0.9,0.9-0.9
		C159.8,162.4,160.2,162.8,160.2,163.3"/>
</g>
<g>
	<path fill="#EFEDE6" d="M-10,186.3c4.2-6.7,6.4-14.4,12.8-18.6c-0.1,0-0.2,0-0.3,0h-17.9c-2,0-3.6,1.6-3.6,3.6v17.9
		c0,0.7,0.2,1.4,0.6,2C-14.5,191-11.3,189-10,186.3"/>
	<path fill="#E5E2DC" d="M2.8,167.7c-6.4,4.2-8.6,11.9-12.8,18.6c-1.3,2.7-4.5,4.7-8.4,4.9c0.6,1,1.8,1.7,3.1,1.7H2.6
		c2,0,3.6-1.6,3.6-3.6v-17.9C6.2,169.4,4.7,167.9,2.8,167.7"/>
	<path fill="#A8A8A8" d="M-14.4,171.4c0,0.5-0.4,0.9-0.9,0.9c-0.5,0-0.9-0.4-0.9-0.9s0.4-0.9,0.9-0.9
		C-14.8,170.6-14.4,170.9-14.4,171.4"/>
	<path fill="#A8A8A8" d="M3.7,171.4c0,0.5-0.4,0.9-0.9,0.9c-0.5,0-0.9-0.4-0.9-0.9s0.4-0.9,0.9-0.9C3.3,170.6,3.7,170.9,3.7,171.4"
		/>
	<path fill="#A8A8A8" d="M3.7,190.2c0,0.5-0.4,0.9-0.9,0.9c-0.5,0-0.9-0.4-0.9-0.9c0-0.5,0.4-0.9,0.9-0.9
		C3.3,189.3,3.7,189.7,3.7,190.2"/>
	<path fill="#A8A8A8" d="M-14.4,190.2c0,0.5-0.4,0.9-0.9,0.9c-0.5,0-0.9-0.4-0.9-0.9c0-0.5,0.4-0.9,0.9-0.9
		C-14.8,189.3-14.4,189.7-14.4,190.2"/>
	<path fill="#E5E2DC" d="M30.7,186.5c4.2-6.7,6.4-14.4,12.8-18.6c-0.1,0-0.2,0-0.3,0H25.3c-2,0-3.6,1.6-3.6,3.6v17.9
		c0,0.7,0.2,1.4,0.6,2C26.2,191.2,29.4,189.2,30.7,186.5"/>
	<path fill="#CCCCCC" d="M43.5,167.9c-6.4,4.2-8.6,11.9-12.8,18.6c-1.3,2.7-4.5,4.7-8.4,4.9c0.6,1,1.8,1.7,3.1,1.7h17.9
		c2,0,3.6-1.6,3.6-3.6v-17.9C46.9,169.6,45.4,168.1,43.5,167.9"/>
	<path fill="#A8A8A8" d="M26.3,171.6c0,0.5-0.4,0.9-0.9,0.9c-0.5,0-0.9-0.4-0.9-0.9s0.4-0.9,0.9-0.9
		C25.9,170.7,26.3,171.1,26.3,171.6"/>
	<path fill="#A8A8A8" d="M44.4,171.6c0,0.5-0.4,0.9-0.9,0.9c-0.5,0-0.9-0.4-0.9-0.9s0.4-0.9,0.9-0.9C44,170.7,44.4,171.1,44.4,171.6
		"/>
	<path fill="#A8A8A8" d="M44.4,190.4c0,0.5-0.4,0.9-0.9,0.9c-0.5,0-0.9-0.4-0.9-0.9c0-0.5,0.4-0.9,0.9-0.9
		C44,189.5,44.4,189.9,44.4,190.4"/>
	<path fill="#A8A8A8" d="M26.3,190.4c0,0.5-0.4,0.9-0.9,0.9c-0.5,0-0.9-0.4-0.9-0.9c0-0.5,0.4-0.9,0.9-0.9S26.3,189.9,26.3,190.4"/>
	<path fill="#CCCCCC" d="M75.3,186.5c4.2-6.7,6.4-14.4,12.8-18.6c-0.1,0-0.2,0-0.3,0H69.9c-2,0-3.6,1.6-3.6,3.6v17.9
		c0,0.7,0.2,1.4,0.6,2C70.8,191.2,74,189.2,75.3,186.5"/>
	<path fill="#A9A8A8" d="M88.1,167.9c-6.4,4.2-8.6,11.9-12.8,18.6c-1.3,2.7-4.5,4.7-8.4,4.9c0.6,1,1.8,1.7,3.1,1.7h17.9
		c2,0,3.6-1.6,3.6-3.6v-17.9C91.5,169.6,90,168,88.1,167.9"/>
	<path fill="#A8A8A8" d="M70.9,171.6c0,0.5-0.4,0.9-0.9,0.9s-0.9-0.4-0.9-0.9c0-0.5,0.4-0.9,0.9-0.9S70.9,171.1,70.9,171.6"/>
	<path fill="#CCCCCC" d="M89,171.6c0,0.5-0.4,0.9-0.9,0.9c-0.5,0-0.9-0.4-0.9-0.9c0-0.5,0.4-0.9,0.9-0.9
		C88.6,170.7,89,171.1,89,171.6"/>
	<path fill="#CCCCCC" d="M89,190.4c0,0.5-0.4,0.9-0.9,0.9c-0.5,0-0.9-0.4-0.9-0.9c0-0.5,0.4-0.9,0.9-0.9
		C88.6,189.5,89,189.9,89,190.4"/>
	<path fill="#A8A8A8" d="M70.9,190.4c0,0.5-0.4,0.9-0.9,0.9s-0.9-0.4-0.9-0.9c0-0.5,0.4-0.9,0.9-0.9S70.9,189.9,70.9,190.4"/>
	<path fill="#A9A8A8" d="M120.9,186.5c4.2-6.7,6.4-14.4,12.8-18.6c-0.1,0-0.2,0-0.3,0h-17.9c-2,0-3.6,1.6-3.6,3.6v17.9
		c0,0.7,0.2,1.4,0.6,2C116.3,191.2,119.5,189.2,120.9,186.5"/>
	<path fill="#999999" d="M133.7,167.9c-6.4,4.2-8.6,11.9-12.8,18.6c-1.3,2.7-4.5,4.7-8.4,4.9c0.6,1,1.8,1.7,3.1,1.7h17.9
		c2,0,3.6-1.6,3.6-3.6v-17.9C137,169.6,135.6,168.1,133.7,167.9"/>
	<path fill="#CCCCCC" d="M116.5,171.6c0,0.5-0.4,0.9-0.9,0.9s-0.9-0.4-0.9-0.9c0-0.5,0.4-0.9,0.9-0.9S116.5,171.1,116.5,171.6"/>
	<path fill="#CCCCCC" d="M134.6,171.6c0,0.5-0.4,0.9-0.9,0.9c-0.5,0-0.9-0.4-0.9-0.9c0-0.5,0.4-0.9,0.9-0.9
		C134.2,170.7,134.6,171.1,134.6,171.6"/>
	<path fill="#CCCCCC" d="M134.6,190.4c0,0.5-0.4,0.9-0.9,0.9c-0.5,0-0.9-0.4-0.9-0.9c0-0.5,0.4-0.9,0.9-0.9
		C134.2,189.5,134.6,189.9,134.6,190.4"/>
	<path fill="#CCCCCC" d="M116.5,190.4c0,0.5-0.4,0.9-0.9,0.9s-0.9-0.4-0.9-0.9c0-0.5,0.4-0.9,0.9-0.9S116.5,189.9,116.5,190.4"/>
</g>
<g>
	<path fill="#EFEDE6" d="M-10.1,213.2c4.2-6.7,6.4-14.4,12.8-18.6c-0.1,0-0.2,0-0.3,0h-17.9c-2,0-3.6,1.6-3.6,3.6v17.9
		c0,0.7,0.2,1.4,0.6,2C-14.7,217.9-11.5,215.9-10.1,213.2"/>
	<path fill="#E5E2DC" d="M2.7,194.6c-6.4,4.2-8.6,11.9-12.8,18.6c-1.3,2.7-4.5,4.7-8.4,4.9c0.6,1,1.8,1.7,3.1,1.7H2.4
		c2,0,3.6-1.6,3.6-3.6v-17.9C6,196.3,4.5,194.8,2.7,194.6"/>
	<path fill="#A8A8A8" d="M-14.6,198.3c0,0.5-0.4,0.9-0.9,0.9c-0.5,0-0.9-0.4-0.9-0.9c0-0.5,0.4-0.9,0.9-0.9S-14.6,197.8-14.6,198.3"
		/>
	<path fill="#A8A8A8" d="M3.5,198.3c0,0.5-0.4,0.9-0.9,0.9c-0.5,0-0.9-0.4-0.9-0.9c0-0.5,0.4-0.9,0.9-0.9S3.5,197.8,3.5,198.3"/>
	<path fill="#A8A8A8" d="M3.5,217.1c0,0.5-0.4,0.9-0.9,0.9c-0.5,0-0.9-0.4-0.9-0.9c0-0.5,0.4-0.9,0.9-0.9
		C3.1,216.2,3.5,216.6,3.5,217.1"/>
	<path fill="#A8A8A8" d="M-14.6,217.1c0,0.5-0.4,0.9-0.9,0.9c-0.5,0-0.9-0.4-0.9-0.9c0-0.5,0.4-0.9,0.9-0.9
		C-15,216.2-14.6,216.6-14.6,217.1"/>
	<path fill="#E5E2DC" d="M30.5,213.4c4.2-6.7,6.4-14.4,12.8-18.6c-0.1,0-0.2,0-0.3,0H25.1c-2,0-3.6,1.6-3.6,3.6v17.9
		c0,0.7,0.2,1.4,0.6,2C26,218.1,29.2,216.1,30.5,213.4"/>
	<path fill="#CCCCCC" d="M43.3,194.8c-6.4,4.2-8.6,11.9-12.8,18.6c-1.3,2.7-4.5,4.7-8.4,4.9c0.6,1,1.8,1.7,3.1,1.7h17.9
		c2,0,3.6-1.6,3.6-3.6v-17.9C46.7,196.5,45.2,194.9,43.3,194.8"/>
	<path fill="#A8A8A8" d="M26.1,198.5c0,0.5-0.4,0.9-0.9,0.9c-0.5,0-0.9-0.4-0.9-0.9c0-0.5,0.4-0.9,0.9-0.9
		C25.7,197.6,26.1,198,26.1,198.5"/>
	<path fill="#A8A8A8" d="M44.2,198.5c0,0.5-0.4,0.9-0.9,0.9c-0.5,0-0.9-0.4-0.9-0.9c0-0.5,0.4-0.9,0.9-0.9
		C43.8,197.6,44.2,198,44.2,198.5"/>
	<path fill="#A8A8A8" d="M44.2,217.3c0,0.5-0.4,0.9-0.9,0.9c-0.5,0-0.9-0.4-0.9-0.9c0-0.5,0.4-0.9,0.9-0.9
		C43.8,216.4,44.2,216.8,44.2,217.3"/>
	<path fill="#A8A8A8" d="M26.1,217.3c0,0.5-0.4,0.9-0.9,0.9c-0.5,0-0.9-0.4-0.9-0.9c0-0.5,0.4-0.9,0.9-0.9
		C25.7,216.4,26.1,216.8,26.1,217.3"/>
	<path fill="#CCCCCC" d="M75.1,213.4c4.2-6.7,6.4-14.4,12.8-18.6c-0.1,0-0.2,0-0.3,0H69.7c-2,0-3.6,1.6-3.6,3.6v17.9
		c0,0.7,0.2,1.4,0.6,2C70.6,218.1,73.8,216.1,75.1,213.4"/>
	<path fill="#A9A8A8" d="M87.9,194.8c-6.4,4.2-8.6,11.9-12.8,18.6c-1.3,2.7-4.5,4.7-8.4,4.9c0.6,1,1.8,1.7,3.1,1.7h17.9
		c2,0,3.6-1.6,3.6-3.6v-17.9C91.3,196.5,89.8,194.9,87.9,194.8"/>
	<path fill="#A8A8A8" d="M70.7,198.5c0,0.5-0.4,0.9-0.9,0.9s-0.9-0.4-0.9-0.9c0-0.5,0.4-0.9,0.9-0.9S70.7,198,70.7,198.5"/>
	<path fill="#CCCCCC" d="M88.8,198.5c0,0.5-0.4,0.9-0.9,0.9c-0.5,0-0.9-0.4-0.9-0.9c0-0.5,0.4-0.9,0.9-0.9
		C88.4,197.6,88.8,198,88.8,198.5"/>
	<path fill="#CCCCCC" d="M88.8,217.3c0,0.5-0.4,0.9-0.9,0.9c-0.5,0-0.9-0.4-0.9-0.9c0-0.5,0.4-0.9,0.9-0.9
		C88.4,216.4,88.8,216.8,88.8,217.3"/>
	<path fill="#A8A8A8" d="M70.7,217.3c0,0.5-0.4,0.9-0.9,0.9s-0.9-0.4-0.9-0.9c0-0.5,0.4-0.9,0.9-0.9S70.7,216.8,70.7,217.3"/>
</g>
<g>
	<path fill="#EFEDE6" d="M-10.1,239.4c4.2-6.7,6.4-14.4,12.8-18.6c-0.1,0-0.2,0-0.3,0h-17.9c-2,0-3.6,1.6-3.6,3.6v17.9
		c0,0.7,0.2,1.4,0.6,2C-14.7,244.1-11.5,242.1-10.1,239.4"/>
	<path fill="#E5E2DC" d="M2.7,220.8c-6.4,4.2-8.6,11.9-12.8,18.6c-1.3,2.7-4.5,4.7-8.4,4.9c0.6,1,1.8,1.7,3.1,1.7H2.4
		c2,0,3.6-1.6,3.6-3.6v-17.9C6,222.5,4.5,221,2.7,220.8"/>
	<path fill="#A8A8A8" d="M-14.6,224.5c0,0.5-0.4,0.9-0.9,0.9c-0.5,0-0.9-0.4-0.9-0.9s0.4-0.9,0.9-0.9C-15,223.6-14.6,224-14.6,224.5
		"/>
	<path fill="#A8A8A8" d="M3.5,224.5c0,0.5-0.4,0.9-0.9,0.9c-0.5,0-0.9-0.4-0.9-0.9s0.4-0.9,0.9-0.9C3.1,223.6,3.5,224,3.5,224.5"/>
	<path fill="#A8A8A8" d="M3.5,243.3c0,0.5-0.4,0.9-0.9,0.9c-0.5,0-0.9-0.4-0.9-0.9c0-0.5,0.4-0.9,0.9-0.9
		C3.1,242.4,3.5,242.8,3.5,243.3"/>
	<path fill="#A8A8A8" d="M-14.6,243.3c0,0.5-0.4,0.9-0.9,0.9c-0.5,0-0.9-0.4-0.9-0.9c0-0.5,0.4-0.9,0.9-0.9
		C-15,242.4-14.6,242.8-14.6,243.3"/>
	<path fill="#E5E2DC" d="M30.5,239.6c4.2-6.7,6.4-14.4,12.8-18.6c-0.1,0-0.2,0-0.3,0H25.1c-2,0-3.6,1.6-3.6,3.6v17.9
		c0,0.7,0.2,1.4,0.6,2C26,244.3,29.2,242.2,30.5,239.6"/>
	<path fill="#CCCCCC" d="M43.3,221c-6.4,4.2-8.6,11.9-12.8,18.6c-1.3,2.7-4.5,4.7-8.4,4.9c0.6,1,1.8,1.7,3.1,1.7h17.9
		c2,0,3.6-1.6,3.6-3.6v-17.9C46.7,222.7,45.2,221.1,43.3,221"/>
	<path fill="#A8A8A8" d="M26.1,224.7c0,0.5-0.4,0.9-0.9,0.9c-0.5,0-0.9-0.4-0.9-0.9c0-0.5,0.4-0.9,0.9-0.9S26.1,224.2,26.1,224.7"/>
	<path fill="#A8A8A8" d="M44.2,224.7c0,0.5-0.4,0.9-0.9,0.9c-0.5,0-0.9-0.4-0.9-0.9c0-0.5,0.4-0.9,0.9-0.9
		C43.8,223.8,44.2,224.2,44.2,224.7"/>
	<path fill="#A8A8A8" d="M44.2,243.5c0,0.5-0.4,0.9-0.9,0.9c-0.5,0-0.9-0.4-0.9-0.9c0-0.5,0.4-0.9,0.9-0.9
		C43.8,242.6,44.2,243,44.2,243.5"/>
	<path fill="#A8A8A8" d="M26.1,243.5c0,0.5-0.4,0.9-0.9,0.9c-0.5,0-0.9-0.4-0.9-0.9c0-0.5,0.4-0.9,0.9-0.9
		C25.7,242.6,26.1,243,26.1,243.5"/>
</g>
<g>
	<path fill="#EFEDE6" d="M-9.4,266.2c4.2-6.7,6.4-14.4,12.8-18.6c-0.1,0-0.2,0-0.3,0h-17.9c-2,0-3.6,1.6-3.6,3.6v17.9
		c0,0.7,0.2,1.4,0.6,2C-14,270.9-10.8,268.9-9.4,266.2"/>
	<path fill="#E5E2DC" d="M3.4,247.6c-6.4,4.2-8.6,11.9-12.8,18.6c-1.3,2.7-4.5,4.7-8.4,4.9c0.6,1,1.8,1.7,3.1,1.7H3.1
		c2,0,3.6-1.6,3.6-3.6v-17.9C6.7,249.3,5.2,247.7,3.4,247.6"/>
	<path fill="#A8A8A8" d="M-13.8,251.3c0,0.5-0.4,0.9-0.9,0.9c-0.5,0-0.9-0.4-0.9-0.9c0-0.5,0.4-0.9,0.9-0.9
		C-14.2,250.4-13.8,250.8-13.8,251.3"/>
	<path fill="#A8A8A8" d="M4.3,251.3c0,0.5-0.4,0.9-0.9,0.9c-0.5,0-0.9-0.4-0.9-0.9c0-0.5,0.4-0.9,0.9-0.9
		C3.9,250.4,4.3,250.8,4.3,251.3"/>
	<path fill="#A8A8A8" d="M4.3,270.1c0,0.5-0.4,0.9-0.9,0.9c-0.5,0-0.9-0.4-0.9-0.9c0-0.5,0.4-0.9,0.9-0.9
		C3.9,269.2,4.3,269.6,4.3,270.1"/>
	<path fill="#A8A8A8" d="M-13.8,270.1c0,0.5-0.4,0.9-0.9,0.9c-0.5,0-0.9-0.4-0.9-0.9c0-0.5,0.4-0.9,0.9-0.9
		C-14.2,269.2-13.8,269.6-13.8,270.1"/>
</g>
</svg>
