<?xml version="1.0" encoding="utf-8"?>
<!-- Generator: Adobe Illustrator 18.1.1, SVG Export Plug-In . SVG Version: 6.00 Build 0)  -->
<svg version="1.1" id="Layer_1" xmlns="http://www.w3.org/2000/svg" xmlns:xlink="http://www.w3.org/1999/xlink" x="0px" y="0px"
	 viewBox="0 0 288 288" enable-background="new 0 0 288 288" xml:space="preserve">
<path fill="#EFEDE6" d="M13.1,107.1L49,98.5l0.1-0.2l22.8-5.4l9.1-2.1l201-47.4l-0.6-2.9l-0.4-0.3l-20.8,4.9l-26.7-16.4l21.4-5.1
	L281,40.2l0.3-0.1l-7-30.8c-1.4-6.4-7.7-10.5-14-9L9,60.7c-6.3,1.5-10.2,8-8.7,14.4l7.5,33.3h0v158.9c0,9.9,8.8,18,19.6,18h242.2
	c10.8,0,19.6-8.1,19.6-18V109.4l-20.5,21.2h-23.5l20.6-21.2h23.5v-2.3H13.1z M72.9,91.7L72.9,91.7l9.1-2.2L72.9,91.7z M212.5,33.7
	l25.9,16.5l-20.8,4.9l-26.5-16.3L212.5,33.7z M170.2,43.9l25.7,16.4l-20.8,4.9L148.9,49L170.2,43.9z M127.9,54l25.4,16.3l-20.7,4.9
	l-26.1-16L127.9,54z M85.6,64.2l25.2,16.1l-20.8,4.9L64.3,69.3L85.6,64.2z M43.3,74.4l25,16l-20.8,4.9L21.9,79.5L43.3,74.4z
	 M202.3,109.4l-20.6,21.2h-23.5l20.6-21.2H202.3z M158.9,109.4l-20.6,21.2h-23.5l20.6-21.2H158.9z M28,130.6l20.5-21.2H72
	l-20.6,21.2H28z M71.4,130.6l20.6-21.2h23.5l-20.6,21.2H71.4z M264.1,185.3v44H113.8v-44H264.1z M225.2,130.6h-23.5l20.6-21.2h23.5
	L225.2,130.6z"/>
</svg>
