<?xml version="1.0" encoding="utf-8"?>
<!-- Generator: Adobe Illustrator 18.1.1, SVG Export Plug-In . SVG Version: 6.00 Build 0)  -->
<svg version="1.1" id="Layer_1" xmlns="http://www.w3.org/2000/svg" xmlns:xlink="http://www.w3.org/1999/xlink" x="0px" y="0px"
	 viewBox="0 0 288 288" enable-background="new 0 0 288 288" xml:space="preserve">
<g>
	<path fill="#EFEDE6" d="M135.6,32.4v110.1c0,8.9-8.4,16.2-18.6,16.2h-9.7v107.4c0,9-8.4,16.3-18.7,16.3H47.1
		c-10.3,0-18.7-7.3-18.7-16.3V158.7h-9.8C8.4,158.7,0,151.4,0,142.4V32.4C0,18.9,11.7,7.7,26.6,6v96.5c0,9.9,14.5,17,25.9,5.9
		c0.3-0.3,0.5-0.8,0.5-1.2V5.7h28.7v96.8c0,9.9,14.5,17,25.9,5.9c0.3-0.3,0.5-0.8,0.5-1.2V5.9C123.5,7.2,135.6,18.6,135.6,32.4z"/>
	<path fill="#EFEDE6" d="M286.6,29.7v236.3c0,9-8.4,16.3-18.7,16.3h-41.5c-10.3,0-18.7-7.3-18.7-16.3v-90.9h-37.8
		c0,0,0.1-4.5,0.1-17.8l-0.1-64c0-55.1,15.4-87.7,54.4-87.7h34.8C274.2,5.7,286.6,16.5,286.6,29.7z"/>
</g>
</svg>
