<?xml version="1.0" encoding="utf-8"?>
<!-- Generator: Adobe Illustrator 18.1.1, SVG Export Plug-In . SVG Version: 6.00 Build 0)  -->
<svg version="1.1" id="Layer_1" xmlns="http://www.w3.org/2000/svg" xmlns:xlink="http://www.w3.org/1999/xlink" x="0px" y="0px"
	 viewBox="0 0 288 288" enable-background="new 0 0 288 288" xml:space="preserve">
<g>
	<path fill="#EFEDE6" d="M285.5,208.4c-5.6,14.9-21.6,28.4-31.7,24.4c-8.2-3.1-12.7-17.6-11-28.6c1.4-9.1,6.5-12.2,4.7-19.3
		c-1.4-5.4-6.1-10.2-11.4-12c-1.7,1.5-8.2,7.1-15.9,13.8l-107.1,93.1c-9,7.8-23.6,6-32.4-4.2L9.3,193.5c-8.8-10.2-8.7-24.9,0.4-32.7
		l107.1-93.1c9-7.8,16.4-14.2,16.4-14.2L145,67v58.6c0,16.3,13.4,29.6,29.7,29.6c13.4,0,24.8-9.1,28.4-21.4l25.8,29.7
		c1-0.5,1.9-1,3-1.5c2.2-1,26.5-11.8,44.3,4.2C288.8,177.6,290.3,195.5,285.5,208.4z"/>
	<path fill="#EFEDE6" d="M175.4,2h-1.5c-9,0-16.4,7.4-16.4,16.4v102.7c0,9,7.4,16.4,16.4,16.4h1.5c9,0,16.4-7.4,16.4-16.4V18.4
		C191.8,9.4,184.4,2,175.4,2z"/>
</g>
</svg>
