<?xml version="1.0" encoding="utf-8"?>
<!-- Generator: Adobe Illustrator 18.1.1, SVG Export Plug-In . SVG Version: 6.00 Build 0)  -->
<svg version="1.1" id="Layer_1" xmlns="http://www.w3.org/2000/svg" xmlns:xlink="http://www.w3.org/1999/xlink" x="0px" y="0px"
	 viewBox="0 0 288 288" enable-background="new 0 0 288 288" xml:space="preserve">
<g>
	<path fill="#8770B2" d="M206.5,47.6l0.1,0.4c0.1,0.4,0.3,0.9,0.5,1.2c0.3-0.4,0.5-0.8,0.6-1.2l0.1-0.4H206.5z"/>
	<path fill="#8770B2" d="M207.9,47.6l-0.1,0.4c-0.1,0.4-0.3,0.9-0.6,1.2c-0.2-0.4-0.4-0.8-0.5-1.2l-0.1-0.4H207.9z"/>
	<path fill="#8770B2" d="M207.9,47.6l-0.1,0.4c-0.1,0.4-0.3,0.9-0.6,1.2c-0.2-0.4-0.4-0.8-0.5-1.2l-0.1-0.4H207.9z"/>
	<path fill="#8770B2" d="M262.4,47.6h-92.3c0.2-0.5,0.1-0.9,0-1.4l-12-42.8c-0.9-3.2-5.6-5.3-11.2-5.5c-0.4,0-0.7,0-1.1,0l-1.8,0
		c-5.7,0.2-10.4,2.4-11.2,5.5l-12,42.8c-0.1,0.5-0.2,0.9,0,1.4H25.6C11.5,47.6,0,56.8,0,68.1v126.2c0,11.3,11.5,20.5,25.6,20.5h45.4
		l-19.7,59.8c-1.6,4.8,1.9,10.3,7.7,12.1c7.3,2.3,15-0.9,17-6.9l21.4-65h37.2c-0.1,0.2-0.1,0.4-0.1,0.6v41.2c0,5.2,5.3,9.4,11.7,9.4
		h0.4c6.4,0,11.7-4.2,11.7-9.4v-41.2c0-0.2,0-0.4-0.1-0.6h40.6l21.4,65c2,6.1,9.6,9.2,17,6.9c5.8-1.8,9.3-7.3,7.7-12.1l-19.7-59.8
		h37.3c14,0,25.6-9.2,25.6-20.5V68.1C288,56.8,276.5,47.6,262.4,47.6z M146.2,47.6l-0.1,0.4c-0.1,0.4-0.3,0.9-0.6,1.2
		c-0.2-0.4-0.4-0.8-0.5-1.2l-0.1-0.4H146.2z M260.2,195.6H26.4V66.7h233.7V195.6z"/>
	<path fill="#8770B2" d="M240,78.1c-24.3-0.3-42.8,9.7-55.6,25.9c-8.2,10.4-10.4,26.7-20,35.9c-0.8,0.8-1.6,1.5-2.4,2.2
		c-0.7-4.7-1.3-9.6-4.3-14c-7.3-10.6-22.1-18.7-37.6-15.8c-5.9,1.1-10.3,3.3-14,6.1c-0.8-2.2-1.6-4.4-2.7-6.5
		c-7.3-14.3-21.5-15-36.8-6.2c-23,13.2-24.6,37.2-24.6,58c0,2.8,1.7,4.8,4.1,5.8c0,0,0.1,0.1,0.1,0.1c17.1,17.9,54.6,14.6,80,15.3
		c30.4,0.9,66.9,4.6,96.4-3.9c8.4-1.6,15.6-4.5,19.3-9.4c5.2-6.8,2.3-16.7,1.3-23.9c-2.5-19.1-5.6-36.7,1.7-55.5
		c0.1-0.4,0.2-0.7,0.3-1.1C251,87.7,249.3,78.2,240,78.1z M225.9,93.9c-2.8,8.7-4,17.2-3.7,26.5c0.2,9.6,9.1,30.4,4.6,39
		c-8,15.3-42.8,9-57-1.8C191.3,140.1,193.9,102.1,225.9,93.9z M146.3,150.1c-10.2,2.1-20.6-1.5-29.9-10.8c-0.4-0.4-0.7-0.9-1.1-1.3
		C140.5,122.6,144.5,136.1,146.3,150.1z M83,117.2c5.4,1.7,7.8,10.2,10.4,17.2c-6.8,11.6-13.2,23.4-33.5,24.2
		C60.8,144,65.4,111.6,83,117.2z M81.3,169.3c3.9-1.4,7.5-3.2,11.1-5.6c5.3-3.6,7.7-9.4,10.6-14.3c8.7,9,20.7,15.6,35.3,16.7
		c3.8,0.3,7.3,0.3,10.5-0.1c0.3,0.8,0.6,1.5,0.9,2.1c0.7,1.2,1.5,2.2,2.2,3.2c-3.4-0.1-6.7-0.2-9.7-0.2
		C130.6,170.8,101.7,172.2,81.3,169.3z"/>
</g>
</svg>
