<?xml version="1.0" encoding="utf-8"?>
<!-- Generator: Adobe Illustrator 18.1.1, SVG Export Plug-In . SVG Version: 6.00 Build 0)  -->
<svg version="1.1" id="Layer_1" xmlns="http://www.w3.org/2000/svg" xmlns:xlink="http://www.w3.org/1999/xlink" x="0px" y="0px"
	 viewBox="0 0 288 288" enable-background="new 0 0 288 288" xml:space="preserve">
<g>
	<path fill="#8DD4DC" d="M237.9,163.4L140.1,41.9c-14.1-17.5-31-21.2-55.5-27.8c0,0-54.8-8-66.9,1.6C4.4,26.4,0.9,80.8,0.9,80.8
		c-0.2,22.4,1.4,43.4,15.5,60.8L114.1,263c14.1,17.5,39.8,20.2,57.3,6.2l60.3-48.5C249.2,206.6,251.9,180.8,237.9,163.4z M66.9,77.2
		c-8.9,7.1-22,5.7-29.1-3.3s-5.7-22,3.3-29.1s22-5.7,29.1,3.3C77.3,57,75.8,70,66.9,77.2z"/>
	<path fill="#8DD4DC" d="M276.7,167.7L178.9,46.2c-14.1-17.5-31-21.2-55.5-27.8c0,0-8.4-1.2-19.3-2.1c24.4,6.6,41.4,10.4,55.4,27.8
		l97.8,121.4c14.1,17.5,11.3,43.2-6.2,57.3l-60.3,48.5c-6,4.9-13.1,7.7-20.2,8.6c13,4.8,28.1,2.9,39.6-6.4l60.3-48.5
		C288,210.9,290.7,185.2,276.7,167.7z"/>
</g>
<rect id="_x3C_Slice_x3E__2_" x="-33" y="279" fill="none" width="61" height="62"/>
</svg>
