<?xml version="1.0" encoding="utf-8"?>
<!-- Generator: Adobe Illustrator 18.1.1, SVG Export Plug-In . SVG Version: 6.00 Build 0)  -->
<svg version="1.1" id="Layer_1" xmlns="http://www.w3.org/2000/svg" xmlns:xlink="http://www.w3.org/1999/xlink" x="0px" y="0px"
	 viewBox="0 0 288 288" enable-background="new 0 0 288 288" xml:space="preserve">
<g>
	<path fill="#EDC671" d="M848,309H610.3c-13.4,0-24.3,10.9-24.3,24.3v163.1c0,13.4,10.9,24.3,24.3,24.3h47.5l-26.2,27.5
		c-3.5,3.6-3.8,9.1-1.1,13.1c0,0,0.1,0.1,0.1,0.1c0.1,0.3,0.3,0.5,0.6,0.8c0.2,0.3,0.5,0.5,0.7,0.8c0.1,0,0.1,0.1,0.2,0.2
		c1.8,1.8,4.3,3.1,7.2,3.1l187.8,0.7c4.2,0,7.9-2.5,9.4-6.1c0.2-0.3,0.3-0.7,0.5-1.1c0.2-0.5,0.3-1,0.4-1.5c0-0.4,0.1-0.7,0.1-1.1
		c0-0.6,0-1.3,0-2c-0.1-0.6-0.2-1.2-0.4-1.8c-0.4-1.6-1.2-3.1-2.4-4.4l-27.1-28.4H848c13.4,0,24.3-10.9,24.3-24.3V333.3
		C872.3,319.9,861.4,309,848,309z M841.1,478.1h-224V334.9h224V478.1z"/>
	<circle fill="#EDC671" cx="702" cy="456.7" r="10.4"/>
	<circle fill="#EDC671" cx="733.3" cy="456.7" r="10.4"/>
	<circle fill="#EDC671" cx="765.2" cy="456.7" r="10.4"/>
	<path fill="#EDC671" d="M706.2,366L706.2,366c-5-2.8-11.4-0.9-14.1,4.1l-47.3,85.8c-2.8,5-0.9,11.4,4.1,14.1l0,0
		c5,2.8,11.4,0.9,14.1-4.1l47.3-85.8C713,375.1,711.2,368.8,706.2,366z"/>
</g>
<rect id="_x3C_Slice_x3E_" x="260" y="677" fill="none" width="61" height="61"/>
<g>
	<path fill="#95CA5F" d="M560.3,309.7H313.4c-11.2,0-20.4,9.2-20.4,20.4v213.5c0,11.2,9.2,20.4,20.4,20.4h246.9
		c11.2,0,20.4-9.2,20.4-20.4V330.1C580.7,318.9,571.5,309.7,560.3,309.7z M331.5,331.4h68.6v16.7h-68.6V331.4z M556.7,545.6h-242
		v-14.5h242V545.6z M369.1,453.6c0-37.4,30.3-67.7,67.7-67.7s67.7,30.3,67.7,67.7s-30.3,67.7-67.7,67.7S369.1,491,369.1,453.6z
		 M559.9,374.9H314.7v-20h150.6l18.4-23.5h76.2V374.9z"/>
	<circle fill="#95CA5F" cx="436.9" cy="453.6" r="47"/>
</g>
<rect id="_x3C_Slice_x3E__6_" x="260" y="603" fill="none" width="61" height="62"/>
<g>
	<path fill="#8DD4DC" d="M530.9,163.4L433.1,41.9c-14.1-17.5-31-21.2-55.5-27.8c0,0-54.8-8-66.9,1.6c-13.3,10.7-16.9,65.1-16.9,65.1
		c-0.2,22.4,1.4,43.4,15.5,60.8L407.1,263c14.1,17.5,39.8,20.2,57.3,6.2l60.3-48.5C542.2,206.6,544.9,180.8,530.9,163.4z
		 M359.9,77.2c-8.9,7.1-22,5.7-29.1-3.3c-7.1-8.9-5.7-22,3.3-29.1c8.9-7.1,22-5.7,29.1,3.3C370.3,57,368.8,70,359.9,77.2z"/>
	<path fill="#8DD4DC" d="M569.7,167.7L471.9,46.2c-14.1-17.5-31-21.2-55.5-27.8c0,0-8.4-1.2-19.3-2.1c24.4,6.6,41.4,10.4,55.4,27.8
		l97.8,121.4c14.1,17.5,11.3,43.2-6.2,57.3l-60.3,48.5c-6,4.9-13.1,7.7-20.2,8.6c13,4.8,28.1,2.9,39.6-6.4l60.3-48.5
		C581,210.9,583.7,185.2,569.7,167.7z"/>
</g>
<rect id="_x3C_Slice_x3E__13_" x="260" y="352" fill="none" width="61" height="62"/>
<g>
	<path fill="#F3E886" d="M135.6,32.4v110.1c0,8.9-8.4,16.2-18.6,16.2h-9.7v107.4c0,9-8.4,16.3-18.7,16.3H47.1
		c-10.3,0-18.7-7.3-18.7-16.3V158.7h-9.8C8.4,158.7,0,151.4,0,142.4V32.4C0,18.9,11.7,7.7,26.6,6v96.5c0,9.9,14.5,17,25.9,5.9
		c0.3-0.3,0.5-0.8,0.5-1.2V5.7h28.7v96.8c0,9.9,14.5,17,25.9,5.9c0.3-0.3,0.5-0.8,0.5-1.2V5.9C123.5,7.2,135.6,18.6,135.6,32.4z"/>
	<path fill="#F3E886" d="M286.6,29.7v236.3c0,9-8.4,16.3-18.7,16.3h-41.5c-10.3,0-18.7-7.3-18.7-16.3v-90.9h-37.8
		c0,0,0.1-4.5,0.1-17.8l-0.1-64c0-55.1,15.4-87.7,54.4-87.7h34.8C274.2,5.7,286.6,16.5,286.6,29.7z"/>
</g>
<rect id="_x3C_Slice_x3E__2_" x="260" y="279" fill="none" width="61" height="62"/>
<g>
	<path fill="#F37B76" d="M-7.5,501.4c-5.6,14.9-21.6,28.4-31.7,24.4c-8.2-3.1-12.7-17.6-11-28.6c1.4-9.1,6.5-12.2,4.7-19.3
		c-1.4-5.4-6.1-10.2-11.4-12c-1.7,1.5-8.2,7.1-15.9,13.8l-107.1,93.1c-9,7.8-23.6,6-32.4-4.2l-71.4-82.2
		c-8.8-10.2-8.7-24.9,0.4-32.7l107.1-93.1c9-7.8,16.4-14.2,16.4-14.2L-148,360v58.6c0,16.3,13.4,29.6,29.7,29.6
		c13.4,0,24.8-9.1,28.4-21.4l25.8,29.7c1-0.5,1.9-1,3-1.5c2.2-1,26.5-11.8,44.3,4.2C-4.2,470.6-2.7,488.5-7.5,501.4z"/>
	<path fill="#F37B76" d="M-117.6,295h-1.5c-9,0-16.4,7.4-16.4,16.4v102.7c0,9,7.4,16.4,16.4,16.4h1.5c9,0,16.4-7.4,16.4-16.4V311.4
		C-101.2,302.4-108.6,295-117.6,295z"/>
</g>
<rect id="_x3C_Slice_x3E__9_" x="260" y="434" fill="none" width="61" height="62"/>
<g>
	<polygon fill="#D78CBC" points="15.4,571.2 0,571.2 0,328.2 15.1,328.2 26.8,338.5 26.8,459.5 13.4,460 19.6,528.8 26.8,529.9 
		26.8,547.9 	"/>
	<path fill="#D78CBC" d="M30,510.9l-3.5-31c-0.6-5.2,3.4-9.8,8.5-9.8l216.5,0.4c5,0,9,4.4,8.5,9.5l-2.6,30.6c-0.4,4.5-4.1,8-8.5,8
		H38.5C34.2,518.7,30.5,515.4,30,510.9z"/>
	<polygon fill="#D78CBC" points="271.4,571.9 286.8,571.9 286.8,328.9 271.7,328.9 260,339.2 260,460.2 273.4,460.7 267.2,529.5 
		260,530.6 260,548.6 	"/>
	<path fill="#D78CBC" d="M218.2,308H68.8c-16.3,0-29.6,13.2-29.6,29.6v84.3c0,16.3,13.2,29.6,29.6,29.6h149.4
		c16.3,0,29.6-13.2,29.6-29.6v-84.3C247.8,321.2,234.5,308,218.2,308z"/>
</g>
<rect id="_x3C_Slice_x3E__5_" x="260" y="519" fill="none" width="61" height="62"/>
<g>
	<path fill="#8770B2" d="M792.5,47.6l0.1,0.4c0.1,0.4,0.3,0.9,0.5,1.2c0.3-0.4,0.5-0.8,0.6-1.2l0.1-0.4H792.5z"/>
	<path fill="#8770B2" d="M793.9,47.6l-0.1,0.4c-0.1,0.4-0.3,0.9-0.6,1.2c-0.2-0.4-0.4-0.8-0.5-1.2l-0.1-0.4H793.9z"/>
	<path fill="#8770B2" d="M793.9,47.6l-0.1,0.4c-0.1,0.4-0.3,0.9-0.6,1.2c-0.2-0.4-0.4-0.8-0.5-1.2l-0.1-0.4H793.9z"/>
	<path fill="#8770B2" d="M848.4,47.6h-92.3c0.2-0.5,0.1-0.9,0-1.4l-12-42.8c-0.9-3.2-5.6-5.3-11.2-5.5c-0.4,0-0.7,0-1.1,0l-1.8,0
		c-5.7,0.2-10.4,2.4-11.2,5.5l-12,42.8c-0.1,0.5-0.2,0.9,0,1.4h-95.3c-14,0-25.6,9.2-25.6,20.5v126.2c0,11.3,11.5,20.5,25.6,20.5
		h45.4l-19.7,59.8c-1.6,4.8,1.9,10.3,7.7,12.1c7.3,2.3,15-0.9,17-6.9l21.4-65h37.2c-0.1,0.2-0.1,0.4-0.1,0.6v41.2
		c0,5.2,5.3,9.4,11.7,9.4h0.4c6.4,0,11.7-4.2,11.7-9.4v-41.2c0-0.2,0-0.4-0.1-0.6h40.6l21.4,65c2,6.1,9.6,9.2,17,6.9
		c5.8-1.8,9.3-7.3,7.7-12.1l-19.7-59.8h37.3c14,0,25.6-9.2,25.6-20.5V68.1C874,56.8,862.5,47.6,848.4,47.6z M732.2,47.6l-0.1,0.4
		c-0.1,0.4-0.3,0.9-0.6,1.2c-0.2-0.4-0.4-0.8-0.5-1.2l-0.1-0.4H732.2z M846.2,195.6H612.4V66.7h233.7V195.6z"/>
	<path fill="#8770B2" d="M826,78.1c-24.3-0.3-42.8,9.7-55.6,25.9c-8.2,10.4-10.4,26.7-20,35.9c-0.8,0.8-1.6,1.5-2.4,2.2
		c-0.7-4.7-1.3-9.6-4.3-14c-7.3-10.6-22.1-18.7-37.6-15.8c-5.9,1.1-10.3,3.3-14,6.1c-0.8-2.2-1.6-4.4-2.7-6.5
		c-7.3-14.3-21.5-15-36.8-6.2c-23,13.2-24.6,37.2-24.6,58c0,2.8,1.7,4.8,4.1,5.8c0,0,0.1,0.1,0.1,0.1c17.1,17.9,54.6,14.6,80,15.3
		c30.4,0.9,66.9,4.6,96.4-3.9c8.4-1.6,15.6-4.5,19.3-9.4c5.2-6.8,2.3-16.7,1.3-23.9c-2.5-19.1-5.6-36.7,1.7-55.5
		c0.1-0.4,0.2-0.7,0.3-1.1C837,87.7,835.3,78.2,826,78.1z M811.9,93.9c-2.8,8.7-4,17.2-3.7,26.5c0.2,9.6,9.1,30.4,4.6,39
		c-8,15.3-42.8,9-57-1.8C777.3,140.1,779.9,102.1,811.9,93.9z M732.3,150.1c-10.2,2.1-20.6-1.5-29.9-10.8c-0.4-0.4-0.7-0.9-1.1-1.3
		C726.5,122.6,730.5,136.1,732.3,150.1z M669,117.2c5.4,1.7,7.8,10.2,10.4,17.2c-6.8,11.6-13.2,23.4-33.5,24.2
		C646.8,144,651.4,111.6,669,117.2z M667.3,169.3c3.9-1.4,7.5-3.2,11.1-5.6c5.3-3.6,7.7-9.4,10.6-14.3c8.7,9,20.7,15.6,35.3,16.7
		c3.8,0.3,7.3,0.3,10.5-0.1c0.3,0.8,0.6,1.5,0.9,2.1c0.7,1.2,1.5,2.2,2.2,3.2c-3.4-0.1-6.7-0.2-9.7-0.2
		C716.6,170.8,687.7,172.2,667.3,169.3z"/>
</g>
<path fill="#6282C1" d="M-279.9,107.1l35.8-8.6l0.1-0.2l22.8-5.4l9.1-2.1l201-47.4l-0.6-2.9l-0.4-0.3l-20.8,4.9l-26.7-16.4l21.4-5.1
	L-12,40.2l0.3-0.1l-7-30.8c-1.4-6.4-7.7-10.5-14-9L-284,60.7c-6.3,1.5-10.2,8-8.7,14.4l7.5,33.3h0v158.9c0,9.9,8.8,18,19.6,18h242.2
	c10.8,0,19.6-8.1,19.6-18V109.4l-20.5,21.2h-23.5l20.6-21.2h23.5v-2.3H-279.9z M-220.1,91.7L-220.1,91.7l9.1-2.2L-220.1,91.7z
	 M-80.5,33.7l25.9,16.5l-20.8,4.9l-26.5-16.3L-80.5,33.7z M-122.8,43.9l25.7,16.4l-20.8,4.9L-144.1,49L-122.8,43.9z M-165.1,54
	l25.4,16.3l-20.7,4.9l-26.1-16L-165.1,54z M-207.4,64.2l25.2,16.1l-20.8,4.9l-25.8-15.9L-207.4,64.2z M-249.7,74.4l25,16l-20.8,4.9
	l-25.6-15.8L-249.7,74.4z M-90.7,109.4l-20.6,21.2h-23.5l20.6-21.2H-90.7z M-134.1,109.4l-20.6,21.2h-23.5l20.6-21.2H-134.1z
	 M-265,130.6l20.5-21.2h23.5l-20.6,21.2H-265z M-221.6,130.6l20.6-21.2h23.5l-20.6,21.2H-221.6z M-28.9,185.3v44h-150.3v-44H-28.9z
	 M-67.8,130.6h-23.5l20.6-21.2h23.5L-67.8,130.6z"/>
<rect id="_x3C_Slice_x3E__1_" x="260" y="352" fill="none" width="61" height="62"/>
</svg>
