<?xml version="1.0" encoding="utf-8"?>
<!-- Generator: Adobe Illustrator 18.1.1, SVG Export Plug-In . SVG Version: 6.00 Build 0)  -->
<svg version="1.1" id="Layer_1" xmlns="http://www.w3.org/2000/svg" xmlns:xlink="http://www.w3.org/1999/xlink" x="0px" y="0px"
	 viewBox="0 0 288 288" enable-background="new 0 0 288 288" xml:space="preserve">
<g>
	<polygon fill="#A9A8A8" points="15.4,278.2 0,278.2 0,35.2 15.1,35.2 26.8,45.5 26.8,166.5 13.4,167 19.6,235.8 26.8,236.9 
		26.8,254.9 	"/>
	<path fill="#A9A8A8" d="M30,217.9l-3.5-31c-0.6-5.2,3.4-9.8,8.5-9.8l216.5,0.4c5,0,9,4.4,8.5,9.5l-2.6,30.6c-0.4,4.5-4.1,8-8.5,8
		H38.5C34.2,225.7,30.5,222.4,30,217.9z"/>
	<polygon fill="#A9A8A8" points="271.4,278.9 286.8,278.9 286.8,35.9 271.7,35.9 260,46.2 260,167.2 273.4,167.7 267.2,236.5 
		260,237.6 260,255.6 	"/>
	<path fill="#A9A8A8" d="M218.2,15H68.8c-16.3,0-29.6,13.2-29.6,29.6v84.3c0,16.3,13.2,29.6,29.6,29.6h149.4
		c16.3,0,29.6-13.2,29.6-29.6V44.6C247.8,28.2,234.5,15,218.2,15z"/>
</g>
</svg>
