<?xml version="1.0" encoding="utf-8"?>
<!-- Generator: Adobe Illustrator 18.1.1, SVG Export Plug-In . SVG Version: 6.00 Build 0)  -->
<svg version="1.1" id="Layer_1" xmlns="http://www.w3.org/2000/svg" xmlns:xlink="http://www.w3.org/1999/xlink" x="0px" y="0px"
	 viewBox="0 0 288 288" enable-background="new 0 0 288 288" xml:space="preserve">
<g>
	<path fill="#A9A8A8" d="M267.3,16.7H20.4C9.2,16.7,0,25.9,0,37.1v213.5C0,261.8,9.2,271,20.4,271h246.9c11.2,0,20.4-9.2,20.4-20.4
		V37.1C287.7,25.9,278.5,16.7,267.3,16.7z M38.5,38.4h68.6v16.7H38.5V38.4z M263.7,252.6h-242v-14.5h242V252.6z M76.1,160.6
		c0-37.4,30.3-67.7,67.7-67.7s67.7,30.3,67.7,67.7s-30.3,67.7-67.7,67.7S76.1,198,76.1,160.6z M266.9,81.9H21.7v-20h150.6l18.4-23.5
		h76.2V81.9z"/>
	<circle fill="#A9A8A8" cx="143.9" cy="160.6" r="47"/>
</g>
</svg>
