<?xml version="1.0" encoding="utf-8"?>
<!-- Generator: Adobe Illustrator 18.1.1, SVG Export Plug-In . SVG Version: 6.00 Build 0)  -->
<svg version="1.1" id="Layer_1" xmlns="http://www.w3.org/2000/svg" xmlns:xlink="http://www.w3.org/1999/xlink" x="0px" y="0px"
	 viewBox="0 0 288 288" enable-background="new 0 0 288 288" xml:space="preserve">
<g>
	<path fill="#A9A8A8" d="M262,16H24.3C10.9,16,0,26.9,0,40.3v163.1c0,13.4,10.9,24.3,24.3,24.3h47.5l-26.2,27.5
		c-3.5,3.6-3.8,9.1-1.1,13.1c0,0,0.1,0.1,0.1,0.1c0.1,0.3,0.3,0.5,0.6,0.8s0.5,0.5,0.7,0.8c0.1,0,0.1,0.1,0.2,0.2
		c1.8,1.8,4.3,3.1,7.2,3.1l187.8,0.7c4.2,0,7.9-2.5,9.4-6.1c0.2-0.3,0.3-0.7,0.5-1.1c0.2-0.5,0.3-1,0.4-1.5c0-0.4,0.1-0.7,0.1-1.1
		c0-0.6,0-1.3,0-2c-0.1-0.6-0.2-1.2-0.4-1.8c-0.4-1.6-1.2-3.1-2.4-4.4l-27.1-28.4H262c13.4,0,24.3-10.9,24.3-24.3V40.3
		C286.3,26.9,275.4,16,262,16z M255.1,185.1h-224V41.9h224V185.1z"/>
	<circle fill="#A9A8A8" cx="116" cy="163.7" r="10.4"/>
	<circle fill="#A9A8A8" cx="147.3" cy="163.7" r="10.4"/>
	<circle fill="#A9A8A8" cx="179.2" cy="163.7" r="10.4"/>
	<path fill="#A9A8A8" d="M120.2,73L120.2,73c-5-2.8-11.4-0.9-14.1,4.1l-47.3,85.8c-2.8,5-0.9,11.4,4.1,14.1h0
		c5,2.8,11.4,0.9,14.1-4.1l47.3-85.8C127,82.1,125.2,75.8,120.2,73z"/>
</g>
</svg>
